<svg class="_locale-button__icon_1l639x"  viewBox="0 0 56 56" xmlns="http://www.w3.org/2000/svg" fill="#F7EDDE"><path fill-rule="evenodd"  clip-rule="evenodd" d="M9.18482 28.9677H1.73177C1.87916 33.0404 2.95311 36.8768 4.74913 40.2724H11.087C9.95463 36.841 9.28091 33.0137 9.18482 28.9677ZM11.7035 41.9867H5.74038C8.89315 46.9937 13.6886 50.8623 19.3703 52.8363C16.1709 50.3838 13.5058 46.6043 11.7035 41.9867ZM13.5516 41.9867H21.433C22.2636 47.2859 23.5505 51.4813 25.0944 53.834C21.7244 52.9426 18.5957 50.4939 16.0991 46.7784C15.1359 45.345 14.2788 43.7374 13.5516 41.9867ZM21.1854 40.2724H12.8974C11.7164 36.8903 11.0008 33.0575 10.8996 28.9677H20.4216C20.4601 33.0137 20.7307 36.841 21.1854 40.2724ZM23.1687 41.9867C23.4816 43.9316 23.8566 45.7119 24.2818 47.2879C24.9432 49.7388 25.7006 51.5984 26.4704 52.805C27.2918 54.0925 27.8369 54.2101 27.9621 54.2101C28.0873 54.2101 28.6325 54.0925 29.4539 52.805C30.2237 51.5984 30.9811 49.7388 31.6424 47.2879C32.0677 45.7119 32.4427 43.9316 32.7555 41.9867H23.1687ZM33.0092 40.2724H22.915C22.4537 36.8705 22.1754 33.0406 22.1359 28.9677H33.7883C33.7489 33.0406 33.4706 36.8705 33.0092 40.2724ZM34.4913 41.9867C33.6606 47.286 32.3737 51.4814 30.8298 53.8341C34.2 52.9428 37.3288 50.494 39.8256 46.7784C40.7887 45.345 41.6459 43.7374 42.3731 41.9867H34.4913ZM43.0272 40.2724H34.7388C35.1936 36.841 35.4641 33.0137 35.5027 28.9677H45.025C44.9239 33.0575 44.2083 36.8903 43.0272 40.2724ZM44.2212 41.9867C42.4072 46.6341 39.7193 50.4324 36.4924 52.8835C42.2342 50.9245 47.0814 47.034 50.2595 41.9867H44.2212ZM51.2508 40.2724H44.8376C45.97 36.841 46.6437 33.0137 46.7398 28.9677H54.2682C54.1208 33.0404 53.0468 36.8768 51.2508 40.2724ZM20.4191 27.2534H10.8933C10.9665 23.0522 11.6879 19.1158 12.8974 15.6521H21.1854C20.7196 19.1672 20.447 23.0978 20.4191 27.2534ZM9.17882 27.2534C9.2483 23.0978 9.92699 19.1672 11.087 15.6521H4.7892C2.93642 19.1275 1.84141 23.0681 1.72468 27.2534H9.17882ZM19.1928 3.22604C16.0723 5.68121 13.4724 9.40582 11.7035 13.9378H5.78806C8.90833 9.01947 13.6172 5.20831 19.1928 3.22604ZM16.0991 9.14606C15.1359 10.5794 14.2788 12.187 13.5515 13.9378H21.433C22.2636 8.63852 23.5505 4.44316 25.0944 2.09042C21.7244 2.98183 18.5957 5.43057 16.0991 9.14606ZM22.1335 27.2534C22.162 23.0697 22.4425 19.1365 22.915 15.6521H33.0092C33.4818 19.1365 33.7622 23.0697 33.7908 27.2534H22.1335ZM23.1687 13.9378H32.7555C32.4427 11.9928 32.0677 10.2125 31.6424 8.63655C30.9811 6.18568 30.2237 4.326 29.4539 3.11943C28.6408 1.84488 28.0983 1.71677 27.966 1.71432L27.9572 1.71434C27.8232 1.71743 27.2814 1.84811 26.4704 3.11943C25.7006 4.326 24.9432 6.18568 24.2818 8.63655C23.8566 10.2125 23.4816 11.9928 23.1687 13.9378ZM35.5051 27.2534C35.4772 23.0978 35.2047 19.1672 34.7388 15.6521H43.0273C44.2368 19.1158 44.9581 23.0522 45.0313 27.2534H35.5051ZM34.4913 13.9378H42.3731C41.6459 12.187 40.7887 10.5794 39.8256 9.14606C37.3288 5.4304 34.2 2.9816 30.8298 2.09029C32.3737 4.44301 33.6606 8.63843 34.4913 13.9378ZM46.7458 27.2534C46.6763 23.0978 45.9977 19.1672 44.8377 15.6521H51.2107C53.0635 19.1275 54.1585 23.0681 54.2752 27.2534H46.7458ZM44.2212 13.9378H50.2119C47.0661 8.97928 42.3057 5.1461 36.6703 3.17782C39.8181 5.63231 42.4407 9.37604 44.2212 13.9378ZM27.8854 0.000229489C12.4741 0.0619716 0 12.5742 0 28C0 43.4639 12.536 55.9999 28 55.9999C43.4639 55.9999 55.9999 43.4639 55.9999 28C55.9999 12.536 43.4639 0 28 0L27.9774 8.8613e-06L27.9646 0H27.9623H27.9621L27.9495 3.81662e-05L27.8854 0.000229489Z"></path></svg>