<svg width="115" height="115" viewBox="0 0 115 115" fill="none" xmlns="http://www.w3.org/2000/svg">
<rect x="0.785156" y="25.8623" width="92" height="92" rx="46" transform="rotate(-16 0.785156 25.8623)" fill="#bfa6ff"/>
<path fill-rule="evenodd" clip-rule="evenodd" d="M76.5869 67.1573C84.3321 64.9364 88.8104 56.8573 86.5895 49.1122C84.3686 41.367 76.2895 36.8887 68.5444 39.1096C60.7992 41.3305 56.3209 49.4095 58.5418 57.1547C60.7627 64.8999 68.8417 69.3782 76.5869 67.1573ZM67.3792 48.8076L70.4381 59.4753C70.5013 59.6956 70.7793 59.7649 70.9385 59.6L78.6476 51.6171C78.8068 51.4522 78.7278 51.1768 78.5055 51.1213L67.7374 48.4366C67.515 48.3812 67.316 48.5872 67.3792 48.8076Z" fill="#050307"/>
<path d="M55.6389 57.0747L43.0596 60.6818L43.0188 60.6935L44.4534 65.6966L50.253 64.0336C49.8178 66.6778 47.8039 69.2885 44.5774 70.2137C40.9629 71.2501 36.5054 69.6553 34.8776 63.9783C33.402 58.8322 35.6537 54.7389 40.4118 53.3745C43.2912 52.5489 45.9881 53.1679 47.475 54.8852L53.3971 53.1871C50.2117 48.244 44.4171 45.9938 38.8218 47.5983C30.4901 49.9873 26.5107 57.0733 28.9818 65.691C31.4528 74.3086 38.8276 78.1388 46.4854 75.943C50.0387 74.9241 52.4464 72.2226 53.1271 69.9721C53.2872 69.5284 53.8912 69.5541 54.0201 70.0033L54.8047 72.7398L59.7262 71.3285L55.6389 57.0747Z" fill="#050307"/>
</svg>
