<svg class="_tag__icon_1qlo7s" width="24" height="8" fill="black" xmlns="http://www.w3.org/2000/svg"><g id="“ ”"><path id="Vector" d="M15.2188 6.47205C16.0108 6.12005 16.5467 5.76805 16.8267 5.41605C17.1147 5.05605 17.2587 4.70005 17.2587 4.34805C17.2587 4.09205 17.1667 3.87605 16.9827 3.70005C16.8067 3.52405 16.5988 3.37205 16.3588 3.24405C16.1188 3.11605 15.9067 2.99605 15.7227 2.88405C15.5387 2.77205 15.4467 2.65605 15.4467 2.53605C15.4467 2.03205 15.6147 1.60805 15.9507 1.26405C16.2947 0.920047 16.7468 0.748047 17.3068 0.748047C17.8748 0.748047 18.3388 0.936047 18.6988 1.31205C19.0588 1.68005 19.2387 2.20005 19.2387 2.87205C19.2387 3.50405 19.1228 4.08005 18.8907 4.60005C18.6588 5.12005 18.2788 5.60005 17.7508 6.04005C17.2308 6.47205 16.5227 6.88805 15.6267 7.28805L15.2188 6.47205ZM19.9828 6.47205C20.7748 6.12005 21.3108 5.76805 21.5908 5.41605C21.8788 5.05605 22.0227 4.70005 22.0227 4.34805C22.0227 4.09205 21.9307 3.87605 21.7467 3.70005C21.5707 3.52405 21.3628 3.37205 21.1228 3.24405C20.8828 3.11605 20.6708 2.99605 20.4868 2.88405C20.3028 2.77205 20.2107 2.65605 20.2107 2.53605C20.2107 2.03205 20.3788 1.60805 20.7148 1.26405C21.0588 0.920047 21.5108 0.748047 22.0708 0.748047C22.6388 0.748047 23.1028 0.936047 23.4628 1.31205C23.8228 1.68005 24.0027 2.20005 24.0027 2.87205C24.0027 3.50405 23.8867 4.08005 23.6547 4.60005C23.4227 5.12005 23.0428 5.60005 22.5148 6.04005C21.9948 6.47205 21.2867 6.88805 20.3907 7.28805L19.9828 6.47205Z"></path><path id="Vector_2" d="M4.34101 1.54004C3.55701 1.88404 3.02101 2.23604 2.73301 2.59604C2.44501 2.95604 2.30101 3.30804 2.30101 3.65204C2.30101 3.90804 2.39301 4.12404 2.57701 4.30004C2.76101 4.47604 2.97301 4.63204 3.21301 4.76804C3.45301 4.89604 3.66501 5.01604 3.84901 5.12804C4.03301 5.23204 4.12501 5.34404 4.12501 5.46404C4.12501 5.96804 3.95301 6.39604 3.60901 6.74804C3.27301 7.09204 2.82501 7.26404 2.26501 7.26404C1.69701 7.26404 1.23301 7.08004 0.873008 6.71204C0.513008 6.33604 0.333008 5.80804 0.333008 5.12804C0.333008 4.49604 0.449008 3.92004 0.681008 3.40004C0.913008 2.88004 1.29301 2.40004 1.82101 1.96004C2.34901 1.52004 3.05701 1.10404 3.94501 0.712036L4.34101 1.54004ZM9.10501 1.54004C8.32101 1.88404 7.78501 2.23604 7.49701 2.59604C7.20901 2.95604 7.06501 3.30804 7.06501 3.65204C7.06501 3.90804 7.15701 4.12404 7.34101 4.30004C7.52501 4.47604 7.73701 4.63204 7.97701 4.76804C8.21701 4.89604 8.42901 5.01604 8.61301 5.12804C8.79701 5.23204 8.88901 5.34404 8.88901 5.46404C8.88901 5.96804 8.71701 6.39604 8.37301 6.74804C8.03701 7.09204 7.58901 7.26404 7.02901 7.26404C6.46101 7.26404 5.99701 7.08004 5.63701 6.71204C5.27701 6.33604 5.09701 5.80804 5.09701 5.12804C5.09701 4.49604 5.21301 3.92004 5.44501 3.40004C5.67701 2.88004 6.05701 2.40004 6.58501 1.96004C7.11301 1.52004 7.82101 1.10404 8.70901 0.712036L9.10501 1.54004Z"></path></g></svg>