<svg xmlns="http://www.w3.org/2000/svg" xmlns:xlink="http://www.w3.org/1999/xlink" viewBox="0 0 160 160" width="160" height="160" preserveAspectRatio="xMidYMid meet" style="width: 100%; height: 100%; transform: translate3d(0px, 0px, 0px); content-visibility: visible;"><defs><clipPath id="__lottie_element_320"><rect width="160" height="160" x="0" y="0"></rect></clipPath><clipPath id="__lottie_element_325"><path fill="#ffffff" clip-rule="nonzero" d=" M37.018001556396484,-75.50800323486328 C37.018001556396484,-75.50800323486328 -30.98200035095215,-75.50800323486328 -30.98200035095215,-75.50800323486328 C-53.060001373291016,-75.50800323486328 -70.95899963378906,-57.60900115966797 -70.95899963378906,-35.53099822998047 C-70.95899963378906,-35.53099822998047 -70.95899963378906,35.15299987792969 -70.95899963378906,35.15299987792969 C-70.95899963378906,57.23099899291992 -53.060001373291016,75.12999725341797 -30.98200035095215,75.12999725341797 C-30.98200035095215,75.12999725341797 37.018001556396484,75.12999725341797 37.018001556396484,75.12999725341797 C59.09600067138672,75.12999725341797 76.99400329589844,57.23099899291992 76.99400329589844,35.15299987792969 C76.99400329589844,35.15299987792969 76.99400329589844,-35.53099822998047 76.99400329589844,-35.53099822998047 C76.99400329589844,-57.60900115966797 59.09600067138672,-75.50800323486328 37.018001556396484,-75.50800323486328" fill-opacity="1"></path></clipPath><clipPath id="__lottie_element_328"><path fill="#ffffff" clip-rule="nonzero" d=" M37.018001556396484,-75.50800323486328 C37.018001556396484,-75.50800323486328 -30.98200035095215,-75.50800323486328 -30.98200035095215,-75.50800323486328 C-53.060001373291016,-75.50800323486328 -70.95899963378906,-57.60900115966797 -70.95899963378906,-35.53099822998047 C-70.95899963378906,-35.53099822998047 -70.95899963378906,35.15299987792969 -70.95899963378906,35.15299987792969 C-70.95899963378906,57.23099899291992 -53.060001373291016,75.12999725341797 -30.98200035095215,75.12999725341797 C-30.98200035095215,75.12999725341797 37.018001556396484,75.12999725341797 37.018001556396484,75.12999725341797 C59.09600067138672,75.12999725341797 76.99400329589844,57.23099899291992 76.99400329589844,35.15299987792969 C76.99400329589844,35.15299987792969 76.99400329589844,-35.53099822998047 76.99400329589844,-35.53099822998047 C76.99400329589844,-57.60900115966797 59.09600067138672,-75.50800323486328 37.018001556396484,-75.50800323486328" fill-opacity="1"></path></clipPath><clipPath id="__lottie_element_331"><path fill="#ffffff" clip-rule="nonzero" d=" M37.018001556396484,-75.50800323486328 C37.018001556396484,-75.50800323486328 -30.98200035095215,-75.50800323486328 -30.98200035095215,-75.50800323486328 C-53.060001373291016,-75.50800323486328 -70.95899963378906,-57.60900115966797 -70.95899963378906,-35.53099822998047 C-70.95899963378906,-35.53099822998047 -70.95899963378906,35.15299987792969 -70.95899963378906,35.15299987792969 C-70.95899963378906,57.23099899291992 -53.060001373291016,75.12999725341797 -30.98200035095215,75.12999725341797 C-30.98200035095215,75.12999725341797 37.018001556396484,75.12999725341797 37.018001556396484,75.12999725341797 C59.09600067138672,75.12999725341797 76.99400329589844,57.23099899291992 76.99400329589844,35.15299987792969 C76.99400329589844,35.15299987792969 76.99400329589844,-35.53099822998047 76.99400329589844,-35.53099822998047 C76.99400329589844,-57.60900115966797 59.09600067138672,-75.50800323486328 37.018001556396484,-75.50800323486328" fill-opacity="1"></path></clipPath></defs><g clip-path="url(#__lottie_element_320)"><g transform="matrix(1,0,0,1,80.22899627685547,79.65299987792969)" opacity="1" style="display: block;"><g opacity="1" transform="matrix(1,0,0,1,-0.2290000021457672,0.34700000286102295)"><path stroke-linecap="butt" stroke-linejoin="miter" fill-opacity="0" stroke-miterlimit="4" stroke="rgb(181,166,255)" stroke-opacity="1" stroke-width="2.5" d=" M74.00199890136719,-35.97350311279297 C74.00199890136719,-35.97350311279297 74.00199890136719,35.97350311279297 74.00199890136719,35.97350311279297 C74.00199890136719,57.49760437011719 56.526100158691406,74.97350311279297 35.00199890136719,74.97350311279297 C35.00199890136719,74.97350311279297 -35.00199890136719,74.97350311279297 -35.00199890136719,74.97350311279297 C-56.526100158691406,74.97350311279297 -74.00199890136719,57.49760437011719 -74.00199890136719,35.97350311279297 C-74.00199890136719,35.97350311279297 -74.00199890136719,-35.97350311279297 -74.00199890136719,-35.97350311279297 C-74.00199890136719,-57.49760437011719 -56.526100158691406,-74.97350311279297 -35.00199890136719,-74.97350311279297 C-35.00199890136719,-74.97350311279297 35.00199890136719,-74.97350311279297 35.00199890136719,-74.97350311279297 C56.526100158691406,-74.97350311279297 74.00199890136719,-57.49760437011719 74.00199890136719,-35.97350311279297z"></path></g></g><g clip-path="url(#__lottie_element_325)" transform="matrix(1,0,0,1,77,80.25)" opacity="1" style="display: block;"><g opacity="1" transform="matrix(1,0,0,1,-144.15237426757812,0)"><path fill="rgb(181,166,255)" fill-opacity="1" d=" M79.60299682617188,-23.645999908447266 C79.60299682617188,-23.645999908447266 79.60299682617188,-26.1560001373291 79.60299682617188,-26.1560001373291 C79.60299682617188,-26.1560001373291 77.0459976196289,-26.1560001373291 77.0459976196289,-26.1560001373291 C77.0459976196289,-26.1560001373291 37.5359992980957,-26.1560001373291 37.5359992980957,-26.1560001373291 C31.231000900268555,-26.1560001373291 26.1200008392334,-31.266000747680664 26.1200008392334,-37.57099914550781 C26.1200008392334,-37.57099914550781 26.1200008392334,-77.01300048828125 26.1200008392334,-77.01300048828125 C26.1200008392334,-77.01300048828125 26.11400032043457,-79.56900024414062 26.11400032043457,-79.56900024414062 C26.11400032043457,-79.56900024414062 26.11400032043457,-79.60199737548828 26.11400032043457,-79.60199737548828 C26.11400032043457,-79.60199737548828 23.62700080871582,-79.60199737548828 23.62700080871582,-79.60199737548828 C23.62700080871582,-79.60199737548828 23.62700080871582,-77.08200073242188 23.62700080871582,-77.08200073242188 C23.62700080871582,-77.08200073242188 23.62700080871582,-72.302001953125 23.62700080871582,-72.302001953125 C23.62700080871582,-72.302001953125 23.62700080871582,-37.96099853515625 23.62700080871582,-37.96099853515625 C23.62700080871582,-31.687000274658203 18.565000534057617,-26.5939998626709 12.302000045776367,-26.545000076293945 C12.302000045776367,-26.545000076293945 -12.342000007629395,-26.545000076293945 -12.342000007629395,-26.545000076293945 C-18.604999542236328,-26.5939998626709 -23.66699981689453,-31.687000274658203 -23.66699981689453,-37.96099853515625 C-23.66699981689453,-37.96099853515625 -23.66699981689453,-72.302001953125 -23.66699981689453,-72.302001953125 C-23.66699981689453,-72.302001953125 -23.66699981689453,-77.08200073242188 -23.66699981689453,-77.08200073242188 C-23.66699981689453,-77.08200073242188 -23.66699981689453,-79.60199737548828 -23.66699981689453,-79.60199737548828 C-23.66699981689453,-79.60199737548828 -26.15399932861328,-79.60199737548828 -26.15399932861328,-79.60199737548828 C-26.15399932861328,-79.60199737548828 -26.15399932861328,-79.56900024414062 -26.15399932861328,-79.56900024414062 C-26.15399932861328,-79.56900024414062 -26.156999588012695,-77.01300048828125 -26.156999588012695,-77.01300048828125 C-26.156999588012695,-77.01300048828125 -26.156999588012695,-37.57099914550781 -26.156999588012695,-37.57099914550781 C-26.156999588012695,-31.266000747680664 -31.267000198364258,-26.1560001373291 -37.571998596191406,-26.1560001373291 C-37.571998596191406,-26.1560001373291 -77.01399993896484,-26.1560001373291 -77.01399993896484,-26.1560001373291 C-77.01399993896484,-26.1560001373291 -79.56800079345703,-26.132999420166016 -79.56800079345703,-26.132999420166016 C-79.56800079345703,-26.132999420166016 -79.60299682617188,-26.132999420166016 -79.60299682617188,-26.132999420166016 C-79.60299682617188,-26.132999420166016 -79.60299682617188,-23.645999908447266 -79.60299682617188,-23.645999908447266 C-79.60299682617188,-23.645999908447266 -77.08100128173828,-23.645999908447266 -77.08100128173828,-23.645999908447266 C-77.08100128173828,-23.645999908447266 -72.56900024414062,-23.645999908447266 -72.56900024414062,-23.645999908447266 C-72.56900024414062,-23.645999908447266 -37.96200180053711,-23.645999908447266 -37.96200180053711,-23.645999908447266 C-31.735000610351562,-23.645999908447266 -26.672000885009766,-18.660999298095703 -26.54800033569336,-12.463000297546387 C-26.54800033569336,-12.463000297546387 -26.54800033569336,12.517999649047852 -26.54800033569336,12.517999649047852 C-26.672000885009766,18.715999603271484 -31.735000610351562,23.70199966430664 -37.96200180053711,23.70199966430664 C-37.96200180053711,23.70199966430664 -72.56900024414062,23.70199966430664 -72.56900024414062,23.70199966430664 C-72.56900024414062,23.70199966430664 -77.08100128173828,23.70199966430664 -77.08100128173828,23.70199966430664 C-77.08100128173828,23.70199966430664 -79.60299682617188,23.70199966430664 -79.60299682617188,23.70199966430664 C-79.60299682617188,23.70199966430664 -79.60299682617188,26.18899917602539 -79.60299682617188,26.18899917602539 C-79.60299682617188,26.18899917602539 -79.56800079345703,26.18899917602539 -79.56800079345703,26.18899917602539 C-79.56800079345703,26.18899917602539 -77.01399993896484,26.190000534057617 -77.01399993896484,26.190000534057617 C-77.01399993896484,26.190000534057617 -37.571998596191406,26.190000534057617 -37.571998596191406,26.190000534057617 C-31.267000198364258,26.190000534057617 -26.156999588012695,31.301000595092773 -26.156999588012695,37.60499954223633 C-26.156999588012695,37.60499954223633 -26.156999588012695,37.64500045776367 -26.156999588012695,37.64500045776367 C-26.159000396728516,37.73899841308594 -26.15999984741211,37.83300018310547 -26.15999984741211,37.928001403808594 C-26.15999984741211,37.928001403808594 -26.15999984741211,77.0469970703125 -26.15999984741211,77.0469970703125 C-26.15999984741211,77.0469970703125 -26.15999984741211,79.60199737548828 -26.15999984741211,79.60199737548828 C-26.15999984741211,79.60199737548828 -23.64699935913086,79.60199737548828 -23.64699935913086,79.60199737548828 C-23.64699935913086,79.60199737548828 -23.64699935913086,77.08200073242188 -23.64699935913086,77.08200073242188 C-23.64699935913086,77.08200073242188 -23.670000076293945,77.08200073242188 -23.670000076293945,77.08200073242188 C-23.670000076293945,77.08200073242188 -23.670000076293945,37.67100143432617 -23.670000076293945,37.67100143432617 C-23.534000396728516,31.485000610351562 -18.47599983215332,26.511999130249023 -12.256999969482422,26.511999130249023 C-12.256999969482422,26.511999130249023 12.217000007629395,26.511999130249023 12.217000007629395,26.511999130249023 C18.52199935913086,26.511999130249023 23.631999969482422,31.62299919128418 23.631999969482422,37.928001403808594 C23.631999969482422,37.928001403808594 23.631999969482422,71.62899780273438 23.631999969482422,71.62899780273438 C23.631999969482422,71.62899780273438 23.64699935913086,71.62899780273438 23.64699935913086,71.62899780273438 C23.64699935913086,71.62899780273438 23.64699935913086,79.60199737548828 23.64699935913086,79.60199737548828 C23.64699935913086,79.60199737548828 26.1200008392334,79.60199737548828 26.1200008392334,79.60199737548828 C26.1200008392334,79.60199737548828 26.1200008392334,77.0469970703125 26.1200008392334,77.0469970703125 C26.1200008392334,77.0469970703125 26.1200008392334,37.60499954223633 26.1200008392334,37.60499954223633 C26.1200008392334,31.301000595092773 31.231000900268555,26.190000534057617 37.5359992980957,26.190000534057617 C37.5359992980957,26.190000534057617 37.542999267578125,26.190000534057617 37.542999267578125,26.190000534057617 C37.66999816894531,26.19300079345703 37.797000885009766,26.19499969482422 37.92499923706055,26.19499969482422 C37.92499923706055,26.19499969482422 77.0459976196289,26.19499969482422 77.0459976196289,26.19499969482422 C77.0459976196289,26.19499969482422 79.60299682617188,26.19499969482422 79.60299682617188,26.19499969482422 C79.60299682617188,26.19499969482422 79.60299682617188,23.70199966430664 79.60299682617188,23.70199966430664 C79.60299682617188,23.70199966430664 77.0790023803711,23.70199966430664 77.0790023803711,23.70199966430664 C77.0790023803711,23.70199966430664 77.0790023803711,23.702999114990234 77.0790023803711,23.702999114990234 C77.0790023803711,23.702999114990234 37.57899856567383,23.702999114990234 37.57899856567383,23.702999114990234 C31.43400001525879,23.520000457763672 26.509000778198242,18.481000900268555 26.509000778198242,12.291999816894531 C26.509000778198242,12.291999816894531 26.509000778198242,-12.253000259399414 26.509000778198242,-12.253000259399414 C26.509000778198242,-18.558000564575195 31.6200008392334,-23.66900062561035 37.92499923706055,-23.66900062561035 C37.92499923706055,-23.66900062561035 77.0790023803711,-23.66900062561035 77.0790023803711,-23.66900062561035 C77.0790023803711,-23.66900062561035 77.0790023803711,-23.645999908447266 77.0790023803711,-23.645999908447266 C77.0790023803711,-23.645999908447266 79.60299682617188,-23.645999908447266 79.60299682617188,-23.645999908447266z M-32.040000915527344,-24.812999725341797 C-28.816999435424805,-26.211999893188477 -26.22800064086914,-28.79800033569336 -24.822999954223633,-32.018001556396484 C-23.448999404907227,-29.117000579833984 -21.10099983215332,-26.766000747680664 -18.200000762939453,-25.391000747680664 C-21.415000915527344,-23.988000869750977 -23.996000289916992,-21.4060001373291 -25.39699935913086,-18.190000534057617 C-26.775999069213867,-21.093000411987305 -29.131999969482422,-23.441999435424805 -32.040000915527344,-24.812999725341797z M-24.840999603271484,32.01100158691406 C-26.246000289916992,28.816999435424805 -28.81800079345703,26.253000259399414 -32.01599884033203,24.85700035095215 C-29.104999542236328,23.47800064086914 -26.75,21.118000030517578 -25.37700080871582,18.202999114990234 C-23.972000122070312,21.395999908447266 -21.399999618530273,23.961000442504883 -18.20199966430664,25.35700035095215 C-21.113000869750977,26.736000061035156 -23.468000411987305,29.09600067138672 -24.840999603271484,32.01100158691406z M-12.645999908447266,24.024999618530273 C-18.951000213623047,24.024999618530273 -24.06100082397461,18.913999557495117 -24.06100082397461,12.609000205993652 C-24.06100082397461,12.609000205993652 -24.06100082397461,12.541999816894531 -24.06100082397461,12.541999816894531 C-24.05900001525879,12.456999778747559 -24.05900001525879,12.371000289916992 -24.05900001525879,12.28600025177002 C-24.05900001525879,12.28600025177002 -24.05900001525879,-12.230999946594238 -24.05900001525879,-12.230999946594238 C-24.05900001525879,-12.317000389099121 -24.05900001525879,-12.402000427246094 -24.06100082397461,-12.487000465393066 C-24.06100082397461,-12.487000465393066 -24.06100082397461,-12.642999649047852 -24.06100082397461,-12.642999649047852 C-24.06100082397461,-18.947999954223633 -18.951000213623047,-24.058000564575195 -12.645999908447266,-24.058000564575195 C-12.645999908447266,-24.058000564575195 -12.35200023651123,-24.058000564575195 -12.35200023651123,-24.058000564575195 C-12.319000244140625,-24.058000564575195 -12.284000396728516,-24.058000564575195 -12.25100040435791,-24.058000564575195 C-12.25100040435791,-24.058000564575195 12.234000205993652,-24.058000564575195 12.234000205993652,-24.058000564575195 C12.234000205993652,-24.058000564575195 12.312000274658203,-24.058000564575195 12.312000274658203,-24.058000564575195 C12.312000274658203,-24.058000564575195 12.605999946594238,-24.058000564575195 12.605999946594238,-24.058000564575195 C18.910999298095703,-24.058000564575195 24.02199935913086,-18.947999954223633 24.02199935913086,-12.642999649047852 C24.02199935913086,-12.642999649047852 24.02199935913086,12.609000205993652 24.02199935913086,12.609000205993652 C24.02199935913086,18.913999557495117 18.910999298095703,24.024999618530273 12.605999946594238,24.024999618530273 C12.605999946594238,24.024999618530273 -12.645999908447266,24.024999618530273 -12.645999908447266,24.024999618530273z M31.972999572753906,24.860000610351562 C28.777000427246094,26.256999969482422 26.207000732421875,28.82200050354004 24.80299949645996,32.01499938964844 C23.430999755859375,29.099000930786133 21.075000762939453,26.73699951171875 18.16200065612793,25.35700035095215 C21.361000061035156,23.961000442504883 23.93199920654297,21.395999908447266 25.336999893188477,18.202999114990234 C26.708999633789062,21.118000030517578 29.062999725341797,23.479999542236328 31.972999572753906,24.860000610351562z M25.354000091552734,-18.198999404907227 C23.95199966430664,-21.410999298095703 21.371000289916992,-23.989999771118164 18.15999984741211,-25.391000747680664 C21.06100082397461,-26.767000198364258 23.41200065612793,-29.118000030517578 24.78499984741211,-32.020999908447266 C26.18600082397461,-28.80699920654297 28.766000747680664,-26.226999282836914 31.979000091552734,-24.823999404907227 C29.077999114990234,-23.448999404907227 26.729000091552734,-21.100000381469727 25.354000091552734,-18.198999404907227z"></path></g></g><g clip-path="url(#__lottie_element_328)" transform="matrix(1,0,0,1,77,80.25)" opacity="1" style="display: block;"><g opacity="1" transform="matrix(1,0,0,1,3.0175020694732666,0)"><path fill="rgb(181,166,255)" fill-opacity="1" d=" M79.60299682617188,-23.645999908447266 C79.60299682617188,-23.645999908447266 79.60299682617188,-26.1560001373291 79.60299682617188,-26.1560001373291 C79.60299682617188,-26.1560001373291 77.0459976196289,-26.1560001373291 77.0459976196289,-26.1560001373291 C77.0459976196289,-26.1560001373291 37.5359992980957,-26.1560001373291 37.5359992980957,-26.1560001373291 C31.231000900268555,-26.1560001373291 26.1200008392334,-31.266000747680664 26.1200008392334,-37.57099914550781 C26.1200008392334,-37.57099914550781 26.1200008392334,-77.01300048828125 26.1200008392334,-77.01300048828125 C26.1200008392334,-77.01300048828125 26.11400032043457,-79.56900024414062 26.11400032043457,-79.56900024414062 C26.11400032043457,-79.56900024414062 26.11400032043457,-79.60199737548828 26.11400032043457,-79.60199737548828 C26.11400032043457,-79.60199737548828 23.62700080871582,-79.60199737548828 23.62700080871582,-79.60199737548828 C23.62700080871582,-79.60199737548828 23.62700080871582,-77.08200073242188 23.62700080871582,-77.08200073242188 C23.62700080871582,-77.08200073242188 23.62700080871582,-72.302001953125 23.62700080871582,-72.302001953125 C23.62700080871582,-72.302001953125 23.62700080871582,-37.96099853515625 23.62700080871582,-37.96099853515625 C23.62700080871582,-31.687000274658203 18.565000534057617,-26.5939998626709 12.302000045776367,-26.545000076293945 C12.302000045776367,-26.545000076293945 -12.342000007629395,-26.545000076293945 -12.342000007629395,-26.545000076293945 C-18.604999542236328,-26.5939998626709 -23.66699981689453,-31.687000274658203 -23.66699981689453,-37.96099853515625 C-23.66699981689453,-37.96099853515625 -23.66699981689453,-72.302001953125 -23.66699981689453,-72.302001953125 C-23.66699981689453,-72.302001953125 -23.66699981689453,-77.08200073242188 -23.66699981689453,-77.08200073242188 C-23.66699981689453,-77.08200073242188 -23.66699981689453,-79.60199737548828 -23.66699981689453,-79.60199737548828 C-23.66699981689453,-79.60199737548828 -26.15399932861328,-79.60199737548828 -26.15399932861328,-79.60199737548828 C-26.15399932861328,-79.60199737548828 -26.15399932861328,-79.56900024414062 -26.15399932861328,-79.56900024414062 C-26.15399932861328,-79.56900024414062 -26.156999588012695,-77.01300048828125 -26.156999588012695,-77.01300048828125 C-26.156999588012695,-77.01300048828125 -26.156999588012695,-37.57099914550781 -26.156999588012695,-37.57099914550781 C-26.156999588012695,-31.266000747680664 -31.267000198364258,-26.1560001373291 -37.571998596191406,-26.1560001373291 C-37.571998596191406,-26.1560001373291 -77.01399993896484,-26.1560001373291 -77.01399993896484,-26.1560001373291 C-77.01399993896484,-26.1560001373291 -79.56800079345703,-26.132999420166016 -79.56800079345703,-26.132999420166016 C-79.56800079345703,-26.132999420166016 -79.60299682617188,-26.132999420166016 -79.60299682617188,-26.132999420166016 C-79.60299682617188,-26.132999420166016 -79.60299682617188,-23.645999908447266 -79.60299682617188,-23.645999908447266 C-79.60299682617188,-23.645999908447266 -77.08100128173828,-23.645999908447266 -77.08100128173828,-23.645999908447266 C-77.08100128173828,-23.645999908447266 -72.56900024414062,-23.645999908447266 -72.56900024414062,-23.645999908447266 C-72.56900024414062,-23.645999908447266 -37.96200180053711,-23.645999908447266 -37.96200180053711,-23.645999908447266 C-31.735000610351562,-23.645999908447266 -26.672000885009766,-18.660999298095703 -26.54800033569336,-12.463000297546387 C-26.54800033569336,-12.463000297546387 -26.54800033569336,12.517999649047852 -26.54800033569336,12.517999649047852 C-26.672000885009766,18.715999603271484 -31.735000610351562,23.70199966430664 -37.96200180053711,23.70199966430664 C-37.96200180053711,23.70199966430664 -72.56900024414062,23.70199966430664 -72.56900024414062,23.70199966430664 C-72.56900024414062,23.70199966430664 -77.08100128173828,23.70199966430664 -77.08100128173828,23.70199966430664 C-77.08100128173828,23.70199966430664 -79.60299682617188,23.70199966430664 -79.60299682617188,23.70199966430664 C-79.60299682617188,23.70199966430664 -79.60299682617188,26.18899917602539 -79.60299682617188,26.18899917602539 C-79.60299682617188,26.18899917602539 -79.56800079345703,26.18899917602539 -79.56800079345703,26.18899917602539 C-79.56800079345703,26.18899917602539 -77.01399993896484,26.190000534057617 -77.01399993896484,26.190000534057617 C-77.01399993896484,26.190000534057617 -37.571998596191406,26.190000534057617 -37.571998596191406,26.190000534057617 C-31.267000198364258,26.190000534057617 -26.156999588012695,31.301000595092773 -26.156999588012695,37.60499954223633 C-26.156999588012695,37.60499954223633 -26.156999588012695,37.64500045776367 -26.156999588012695,37.64500045776367 C-26.159000396728516,37.73899841308594 -26.15999984741211,37.83300018310547 -26.15999984741211,37.928001403808594 C-26.15999984741211,37.928001403808594 -26.15999984741211,77.0469970703125 -26.15999984741211,77.0469970703125 C-26.15999984741211,77.0469970703125 -26.15999984741211,79.60199737548828 -26.15999984741211,79.60199737548828 C-26.15999984741211,79.60199737548828 -23.64699935913086,79.60199737548828 -23.64699935913086,79.60199737548828 C-23.64699935913086,79.60199737548828 -23.64699935913086,77.08200073242188 -23.64699935913086,77.08200073242188 C-23.64699935913086,77.08200073242188 -23.670000076293945,77.08200073242188 -23.670000076293945,77.08200073242188 C-23.670000076293945,77.08200073242188 -23.670000076293945,37.67100143432617 -23.670000076293945,37.67100143432617 C-23.534000396728516,31.485000610351562 -18.47599983215332,26.511999130249023 -12.256999969482422,26.511999130249023 C-12.256999969482422,26.511999130249023 12.217000007629395,26.511999130249023 12.217000007629395,26.511999130249023 C18.52199935913086,26.511999130249023 23.631999969482422,31.62299919128418 23.631999969482422,37.928001403808594 C23.631999969482422,37.928001403808594 23.631999969482422,71.62899780273438 23.631999969482422,71.62899780273438 C23.631999969482422,71.62899780273438 23.64699935913086,71.62899780273438 23.64699935913086,71.62899780273438 C23.64699935913086,71.62899780273438 23.64699935913086,79.60199737548828 23.64699935913086,79.60199737548828 C23.64699935913086,79.60199737548828 26.1200008392334,79.60199737548828 26.1200008392334,79.60199737548828 C26.1200008392334,79.60199737548828 26.1200008392334,77.0469970703125 26.1200008392334,77.0469970703125 C26.1200008392334,77.0469970703125 26.1200008392334,37.60499954223633 26.1200008392334,37.60499954223633 C26.1200008392334,31.301000595092773 31.231000900268555,26.190000534057617 37.5359992980957,26.190000534057617 C37.5359992980957,26.190000534057617 37.542999267578125,26.190000534057617 37.542999267578125,26.190000534057617 C37.66999816894531,26.19300079345703 37.797000885009766,26.19499969482422 37.92499923706055,26.19499969482422 C37.92499923706055,26.19499969482422 77.0459976196289,26.19499969482422 77.0459976196289,26.19499969482422 C77.0459976196289,26.19499969482422 79.60299682617188,26.19499969482422 79.60299682617188,26.19499969482422 C79.60299682617188,26.19499969482422 79.60299682617188,23.70199966430664 79.60299682617188,23.70199966430664 C79.60299682617188,23.70199966430664 77.0790023803711,23.70199966430664 77.0790023803711,23.70199966430664 C77.0790023803711,23.70199966430664 77.0790023803711,23.702999114990234 77.0790023803711,23.702999114990234 C77.0790023803711,23.702999114990234 37.57899856567383,23.702999114990234 37.57899856567383,23.702999114990234 C31.43400001525879,23.520000457763672 26.509000778198242,18.481000900268555 26.509000778198242,12.291999816894531 C26.509000778198242,12.291999816894531 26.509000778198242,-12.253000259399414 26.509000778198242,-12.253000259399414 C26.509000778198242,-18.558000564575195 31.6200008392334,-23.66900062561035 37.92499923706055,-23.66900062561035 C37.92499923706055,-23.66900062561035 77.0790023803711,-23.66900062561035 77.0790023803711,-23.66900062561035 C77.0790023803711,-23.66900062561035 77.0790023803711,-23.645999908447266 77.0790023803711,-23.645999908447266 C77.0790023803711,-23.645999908447266 79.60299682617188,-23.645999908447266 79.60299682617188,-23.645999908447266z M-32.040000915527344,-24.812999725341797 C-28.816999435424805,-26.211999893188477 -26.22800064086914,-28.79800033569336 -24.822999954223633,-32.018001556396484 C-23.448999404907227,-29.117000579833984 -21.10099983215332,-26.766000747680664 -18.200000762939453,-25.391000747680664 C-21.415000915527344,-23.988000869750977 -23.996000289916992,-21.4060001373291 -25.39699935913086,-18.190000534057617 C-26.775999069213867,-21.093000411987305 -29.131999969482422,-23.441999435424805 -32.040000915527344,-24.812999725341797z M-24.840999603271484,32.01100158691406 C-26.246000289916992,28.816999435424805 -28.81800079345703,26.253000259399414 -32.01599884033203,24.85700035095215 C-29.104999542236328,23.47800064086914 -26.75,21.118000030517578 -25.37700080871582,18.202999114990234 C-23.972000122070312,21.395999908447266 -21.399999618530273,23.961000442504883 -18.20199966430664,25.35700035095215 C-21.113000869750977,26.736000061035156 -23.468000411987305,29.09600067138672 -24.840999603271484,32.01100158691406z M-12.645999908447266,24.024999618530273 C-18.951000213623047,24.024999618530273 -24.06100082397461,18.913999557495117 -24.06100082397461,12.609000205993652 C-24.06100082397461,12.609000205993652 -24.06100082397461,12.541999816894531 -24.06100082397461,12.541999816894531 C-24.05900001525879,12.456999778747559 -24.05900001525879,12.371000289916992 -24.05900001525879,12.28600025177002 C-24.05900001525879,12.28600025177002 -24.05900001525879,-12.230999946594238 -24.05900001525879,-12.230999946594238 C-24.05900001525879,-12.317000389099121 -24.05900001525879,-12.402000427246094 -24.06100082397461,-12.487000465393066 C-24.06100082397461,-12.487000465393066 -24.06100082397461,-12.642999649047852 -24.06100082397461,-12.642999649047852 C-24.06100082397461,-18.947999954223633 -18.951000213623047,-24.058000564575195 -12.645999908447266,-24.058000564575195 C-12.645999908447266,-24.058000564575195 -12.35200023651123,-24.058000564575195 -12.35200023651123,-24.058000564575195 C-12.319000244140625,-24.058000564575195 -12.284000396728516,-24.058000564575195 -12.25100040435791,-24.058000564575195 C-12.25100040435791,-24.058000564575195 12.234000205993652,-24.058000564575195 12.234000205993652,-24.058000564575195 C12.234000205993652,-24.058000564575195 12.312000274658203,-24.058000564575195 12.312000274658203,-24.058000564575195 C12.312000274658203,-24.058000564575195 12.605999946594238,-24.058000564575195 12.605999946594238,-24.058000564575195 C18.910999298095703,-24.058000564575195 24.02199935913086,-18.947999954223633 24.02199935913086,-12.642999649047852 C24.02199935913086,-12.642999649047852 24.02199935913086,12.609000205993652 24.02199935913086,12.609000205993652 C24.02199935913086,18.913999557495117 18.910999298095703,24.024999618530273 12.605999946594238,24.024999618530273 C12.605999946594238,24.024999618530273 -12.645999908447266,24.024999618530273 -12.645999908447266,24.024999618530273z M31.972999572753906,24.860000610351562 C28.777000427246094,26.256999969482422 26.207000732421875,28.82200050354004 24.80299949645996,32.01499938964844 C23.430999755859375,29.099000930786133 21.075000762939453,26.73699951171875 18.16200065612793,25.35700035095215 C21.361000061035156,23.961000442504883 23.93199920654297,21.395999908447266 25.336999893188477,18.202999114990234 C26.708999633789062,21.118000030517578 29.062999725341797,23.479999542236328 31.972999572753906,24.860000610351562z M25.354000091552734,-18.198999404907227 C23.95199966430664,-21.410999298095703 21.371000289916992,-23.989999771118164 18.15999984741211,-25.391000747680664 C21.06100082397461,-26.767000198364258 23.41200065612793,-29.118000030517578 24.78499984741211,-32.020999908447266 C26.18600082397461,-28.80699920654297 28.766000747680664,-26.226999282836914 31.979000091552734,-24.823999404907227 C29.077999114990234,-23.448999404907227 26.729000091552734,-21.100000381469727 25.354000091552734,-18.198999404907227z"></path></g></g><g clip-path="url(#__lottie_element_331)" transform="matrix(1,0,0,1,77,80.25)" opacity="1" style="display: block;"><g opacity="1" transform="matrix(1,0,0,1,3,-154.96299743652344)"><path fill="rgb(181,166,255)" fill-opacity="1" d=" M79.60299682617188,-23.645999908447266 C79.60299682617188,-23.645999908447266 79.60299682617188,-26.1560001373291 79.60299682617188,-26.1560001373291 C79.60299682617188,-26.1560001373291 77.0459976196289,-26.1560001373291 77.0459976196289,-26.1560001373291 C77.0459976196289,-26.1560001373291 37.5359992980957,-26.1560001373291 37.5359992980957,-26.1560001373291 C31.231000900268555,-26.1560001373291 26.1200008392334,-31.266000747680664 26.1200008392334,-37.57099914550781 C26.1200008392334,-37.57099914550781 26.1200008392334,-77.01300048828125 26.1200008392334,-77.01300048828125 C26.1200008392334,-77.01300048828125 26.11400032043457,-79.56900024414062 26.11400032043457,-79.56900024414062 C26.11400032043457,-79.56900024414062 26.11400032043457,-79.60199737548828 26.11400032043457,-79.60199737548828 C26.11400032043457,-79.60199737548828 23.62700080871582,-79.60199737548828 23.62700080871582,-79.60199737548828 C23.62700080871582,-79.60199737548828 23.62700080871582,-77.08200073242188 23.62700080871582,-77.08200073242188 C23.62700080871582,-77.08200073242188 23.62700080871582,-72.302001953125 23.62700080871582,-72.302001953125 C23.62700080871582,-72.302001953125 23.62700080871582,-37.96099853515625 23.62700080871582,-37.96099853515625 C23.62700080871582,-31.687000274658203 18.565000534057617,-26.5939998626709 12.302000045776367,-26.545000076293945 C12.302000045776367,-26.545000076293945 -12.342000007629395,-26.545000076293945 -12.342000007629395,-26.545000076293945 C-18.604999542236328,-26.5939998626709 -23.66699981689453,-31.687000274658203 -23.66699981689453,-37.96099853515625 C-23.66699981689453,-37.96099853515625 -23.66699981689453,-72.302001953125 -23.66699981689453,-72.302001953125 C-23.66699981689453,-72.302001953125 -23.66699981689453,-77.08200073242188 -23.66699981689453,-77.08200073242188 C-23.66699981689453,-77.08200073242188 -23.66699981689453,-79.60199737548828 -23.66699981689453,-79.60199737548828 C-23.66699981689453,-79.60199737548828 -26.15399932861328,-79.60199737548828 -26.15399932861328,-79.60199737548828 C-26.15399932861328,-79.60199737548828 -26.15399932861328,-79.56900024414062 -26.15399932861328,-79.56900024414062 C-26.15399932861328,-79.56900024414062 -26.156999588012695,-77.01300048828125 -26.156999588012695,-77.01300048828125 C-26.156999588012695,-77.01300048828125 -26.156999588012695,-37.57099914550781 -26.156999588012695,-37.57099914550781 C-26.156999588012695,-31.266000747680664 -31.267000198364258,-26.1560001373291 -37.571998596191406,-26.1560001373291 C-37.571998596191406,-26.1560001373291 -77.01399993896484,-26.1560001373291 -77.01399993896484,-26.1560001373291 C-77.01399993896484,-26.1560001373291 -79.56800079345703,-26.132999420166016 -79.56800079345703,-26.132999420166016 C-79.56800079345703,-26.132999420166016 -79.60299682617188,-26.132999420166016 -79.60299682617188,-26.132999420166016 C-79.60299682617188,-26.132999420166016 -79.60299682617188,-23.645999908447266 -79.60299682617188,-23.645999908447266 C-79.60299682617188,-23.645999908447266 -77.08100128173828,-23.645999908447266 -77.08100128173828,-23.645999908447266 C-77.08100128173828,-23.645999908447266 -72.56900024414062,-23.645999908447266 -72.56900024414062,-23.645999908447266 C-72.56900024414062,-23.645999908447266 -37.96200180053711,-23.645999908447266 -37.96200180053711,-23.645999908447266 C-31.735000610351562,-23.645999908447266 -26.672000885009766,-18.660999298095703 -26.54800033569336,-12.463000297546387 C-26.54800033569336,-12.463000297546387 -26.54800033569336,12.517999649047852 -26.54800033569336,12.517999649047852 C-26.672000885009766,18.715999603271484 -31.735000610351562,23.70199966430664 -37.96200180053711,23.70199966430664 C-37.96200180053711,23.70199966430664 -72.56900024414062,23.70199966430664 -72.56900024414062,23.70199966430664 C-72.56900024414062,23.70199966430664 -77.08100128173828,23.70199966430664 -77.08100128173828,23.70199966430664 C-77.08100128173828,23.70199966430664 -79.60299682617188,23.70199966430664 -79.60299682617188,23.70199966430664 C-79.60299682617188,23.70199966430664 -79.60299682617188,26.18899917602539 -79.60299682617188,26.18899917602539 C-79.60299682617188,26.18899917602539 -79.56800079345703,26.18899917602539 -79.56800079345703,26.18899917602539 C-79.56800079345703,26.18899917602539 -77.01399993896484,26.190000534057617 -77.01399993896484,26.190000534057617 C-77.01399993896484,26.190000534057617 -37.571998596191406,26.190000534057617 -37.571998596191406,26.190000534057617 C-31.267000198364258,26.190000534057617 -26.156999588012695,31.301000595092773 -26.156999588012695,37.60499954223633 C-26.156999588012695,37.60499954223633 -26.156999588012695,37.64500045776367 -26.156999588012695,37.64500045776367 C-26.159000396728516,37.73899841308594 -26.15999984741211,37.83300018310547 -26.15999984741211,37.928001403808594 C-26.15999984741211,37.928001403808594 -26.15999984741211,77.0469970703125 -26.15999984741211,77.0469970703125 C-26.15999984741211,77.0469970703125 -26.15999984741211,79.60199737548828 -26.15999984741211,79.60199737548828 C-26.15999984741211,79.60199737548828 -23.64699935913086,79.60199737548828 -23.64699935913086,79.60199737548828 C-23.64699935913086,79.60199737548828 -23.64699935913086,77.08200073242188 -23.64699935913086,77.08200073242188 C-23.64699935913086,77.08200073242188 -23.670000076293945,77.08200073242188 -23.670000076293945,77.08200073242188 C-23.670000076293945,77.08200073242188 -23.670000076293945,37.67100143432617 -23.670000076293945,37.67100143432617 C-23.534000396728516,31.485000610351562 -18.47599983215332,26.511999130249023 -12.256999969482422,26.511999130249023 C-12.256999969482422,26.511999130249023 12.217000007629395,26.511999130249023 12.217000007629395,26.511999130249023 C18.52199935913086,26.511999130249023 23.631999969482422,31.62299919128418 23.631999969482422,37.928001403808594 C23.631999969482422,37.928001403808594 23.631999969482422,71.62899780273438 23.631999969482422,71.62899780273438 C23.631999969482422,71.62899780273438 23.64699935913086,71.62899780273438 23.64699935913086,71.62899780273438 C23.64699935913086,71.62899780273438 23.64699935913086,79.60199737548828 23.64699935913086,79.60199737548828 C23.64699935913086,79.60199737548828 26.1200008392334,79.60199737548828 26.1200008392334,79.60199737548828 C26.1200008392334,79.60199737548828 26.1200008392334,77.0469970703125 26.1200008392334,77.0469970703125 C26.1200008392334,77.0469970703125 26.1200008392334,37.60499954223633 26.1200008392334,37.60499954223633 C26.1200008392334,31.301000595092773 31.231000900268555,26.190000534057617 37.5359992980957,26.190000534057617 C37.5359992980957,26.190000534057617 37.542999267578125,26.190000534057617 37.542999267578125,26.190000534057617 C37.66999816894531,26.19300079345703 37.797000885009766,26.19499969482422 37.92499923706055,26.19499969482422 C37.92499923706055,26.19499969482422 77.0459976196289,26.19499969482422 77.0459976196289,26.19499969482422 C77.0459976196289,26.19499969482422 79.60299682617188,26.19499969482422 79.60299682617188,26.19499969482422 C79.60299682617188,26.19499969482422 79.60299682617188,23.70199966430664 79.60299682617188,23.70199966430664 C79.60299682617188,23.70199966430664 77.0790023803711,23.70199966430664 77.0790023803711,23.70199966430664 C77.0790023803711,23.70199966430664 77.0790023803711,23.702999114990234 77.0790023803711,23.702999114990234 C77.0790023803711,23.702999114990234 37.57899856567383,23.702999114990234 37.57899856567383,23.702999114990234 C31.43400001525879,23.520000457763672 26.509000778198242,18.481000900268555 26.509000778198242,12.291999816894531 C26.509000778198242,12.291999816894531 26.509000778198242,-12.253000259399414 26.509000778198242,-12.253000259399414 C26.509000778198242,-18.558000564575195 31.6200008392334,-23.66900062561035 37.92499923706055,-23.66900062561035 C37.92499923706055,-23.66900062561035 77.0790023803711,-23.66900062561035 77.0790023803711,-23.66900062561035 C77.0790023803711,-23.66900062561035 77.0790023803711,-23.645999908447266 77.0790023803711,-23.645999908447266 C77.0790023803711,-23.645999908447266 79.60299682617188,-23.645999908447266 79.60299682617188,-23.645999908447266z M-32.040000915527344,-24.812999725341797 C-28.816999435424805,-26.211999893188477 -26.22800064086914,-28.79800033569336 -24.822999954223633,-32.018001556396484 C-23.448999404907227,-29.117000579833984 -21.10099983215332,-26.766000747680664 -18.200000762939453,-25.391000747680664 C-21.415000915527344,-23.988000869750977 -23.996000289916992,-21.4060001373291 -25.39699935913086,-18.190000534057617 C-26.775999069213867,-21.093000411987305 -29.131999969482422,-23.441999435424805 -32.040000915527344,-24.812999725341797z M-24.840999603271484,32.01100158691406 C-26.246000289916992,28.816999435424805 -28.81800079345703,26.253000259399414 -32.01599884033203,24.85700035095215 C-29.104999542236328,23.47800064086914 -26.75,21.118000030517578 -25.37700080871582,18.202999114990234 C-23.972000122070312,21.395999908447266 -21.399999618530273,23.961000442504883 -18.20199966430664,25.35700035095215 C-21.113000869750977,26.736000061035156 -23.468000411987305,29.09600067138672 -24.840999603271484,32.01100158691406z M-12.645999908447266,24.024999618530273 C-18.951000213623047,24.024999618530273 -24.06100082397461,18.913999557495117 -24.06100082397461,12.609000205993652 C-24.06100082397461,12.609000205993652 -24.06100082397461,12.541999816894531 -24.06100082397461,12.541999816894531 C-24.05900001525879,12.456999778747559 -24.05900001525879,12.371000289916992 -24.05900001525879,12.28600025177002 C-24.05900001525879,12.28600025177002 -24.05900001525879,-12.230999946594238 -24.05900001525879,-12.230999946594238 C-24.05900001525879,-12.317000389099121 -24.05900001525879,-12.402000427246094 -24.06100082397461,-12.487000465393066 C-24.06100082397461,-12.487000465393066 -24.06100082397461,-12.642999649047852 -24.06100082397461,-12.642999649047852 C-24.06100082397461,-18.947999954223633 -18.951000213623047,-24.058000564575195 -12.645999908447266,-24.058000564575195 C-12.645999908447266,-24.058000564575195 -12.35200023651123,-24.058000564575195 -12.35200023651123,-24.058000564575195 C-12.319000244140625,-24.058000564575195 -12.284000396728516,-24.058000564575195 -12.25100040435791,-24.058000564575195 C-12.25100040435791,-24.058000564575195 12.234000205993652,-24.058000564575195 12.234000205993652,-24.058000564575195 C12.234000205993652,-24.058000564575195 12.312000274658203,-24.058000564575195 12.312000274658203,-24.058000564575195 C12.312000274658203,-24.058000564575195 12.605999946594238,-24.058000564575195 12.605999946594238,-24.058000564575195 C18.910999298095703,-24.058000564575195 24.02199935913086,-18.947999954223633 24.02199935913086,-12.642999649047852 C24.02199935913086,-12.642999649047852 24.02199935913086,12.609000205993652 24.02199935913086,12.609000205993652 C24.02199935913086,18.913999557495117 18.910999298095703,24.024999618530273 12.605999946594238,24.024999618530273 C12.605999946594238,24.024999618530273 -12.645999908447266,24.024999618530273 -12.645999908447266,24.024999618530273z M31.972999572753906,24.860000610351562 C28.777000427246094,26.256999969482422 26.207000732421875,28.82200050354004 24.80299949645996,32.01499938964844 C23.430999755859375,29.099000930786133 21.075000762939453,26.73699951171875 18.16200065612793,25.35700035095215 C21.361000061035156,23.961000442504883 23.93199920654297,21.395999908447266 25.336999893188477,18.202999114990234 C26.708999633789062,21.118000030517578 29.062999725341797,23.479999542236328 31.972999572753906,24.860000610351562z M25.354000091552734,-18.198999404907227 C23.95199966430664,-21.410999298095703 21.371000289916992,-23.989999771118164 18.15999984741211,-25.391000747680664 C21.06100082397461,-26.767000198364258 23.41200065612793,-29.118000030517578 24.78499984741211,-32.020999908447266 C26.18600082397461,-28.80699920654297 28.766000747680664,-26.226999282836914 31.979000091552734,-24.823999404907227 C29.077999114990234,-23.448999404907227 26.729000091552734,-21.100000381469727 25.354000091552734,-18.198999404907227z"></path></g></g></g></svg>