<svg xmlns="http://www.w3.org/2000/svg" xmlns:xlink="http://www.w3.org/1999/xlink" viewBox="0 0 160 160" width="160" height="160" preserveAspectRatio="xMidYMid meet" style="width: 100%; height: 100%; transform: translate3d(0px, 0px, 0px); content-visibility: visible;"><defs><clipPath id="__lottie_element_337"><rect width="160" height="160" x="0" y="0"></rect></clipPath></defs><g clip-path="url(#__lottie_element_337)"><g transform="matrix(0.16666999459266663,0,0,0.16666999459266663,-18.239952087402344,-17.740127563476562)" opacity="1" style="display: block;"><g opacity="1" transform="matrix(1,0,0,1,587.9290161132812,587.9290161132812)"><path stroke-linecap="round" stroke-linejoin="miter" fill-opacity="0" stroke-miterlimit="10" stroke="rgb(247,236,222)" stroke-opacity="1" stroke-width="12" d=" M437.9289855957031,0 C437.9289855957031,241.86099243164062 241.86099243164062,437.9289855957031 -0.0010000000474974513,437.9289855957031 C-241.86199951171875,437.9289855957031 -437.9280090332031,241.86099243164062 -437.9280090332031,0 C-437.9280090332031,-241.86099243164062 -241.86199951171875,-437.9289855957031 -0.0010000000474974513,-437.9289855957031 C241.86099243164062,-437.9289855957031 437.9289855957031,-241.86099243164062 437.9289855957031,0z"></path></g><g opacity="1" transform="matrix(1,0,0,1,0,0)"><g opacity="1" transform="matrix(1,0,0,1,0,0)"><path stroke-linecap="round" stroke-linejoin="miter" fill-opacity="0" stroke-miterlimit="10" stroke="rgb(247,236,222)" stroke-opacity="1" stroke-width="12" d=" M587.927978515625,150 C587.927978515625,150 289.128662109375,138.597900390625 252.2740020751953,589.6953125 C270.1709899902344,1013.358642578125 587.927978515625,1025.8570556640625 587.927978515625,1025.8570556640625 M587.927978515625,150 C587.927978515625,150 566.4486694335938,151.91856384277344 544.2739868164062,589.0286865234375 C556.1710205078125,1006.0253295898438 587.927978515625,1025.8570556640625 587.927978515625,1025.8570556640625 M587.927978515625,150 C587.927978515625,150 191.92799377441406,133.9290008544922 149.92799377441406,589.9290161132812 C169.92799377441406,1015.9290161132812 587.927978515625,1025.8570556640625 587.927978515625,1025.8570556640625 M587.927978515625,150 C587.927978515625,150 289.128662109375,138.597900390625 252.2740020751953,589.6953125 C270.1709899902344,1013.358642578125 587.927978515625,1025.8570556640625 587.927978515625,1025.8570556640625 M587.927978515625,150 C587.927978515625,150 566.4486694335938,151.91856384277344 544.2739868164062,589.0286865234375 C556.1710205078125,1006.0253295898438 587.927978515625,1025.8570556640625 587.927978515625,1025.8570556640625 M587.927978515625,150 C587.927978515625,150 843.7686767578125,165.23922729492188 836.2739868164062,588.3619995117188 C842.1710205078125,998.6920166015625 587.927978515625,1025.8570556640625 587.927978515625,1025.8570556640625"></path></g><g opacity="1" transform="matrix(1,0,0,1,0,0)"><path stroke-linecap="round" stroke-linejoin="miter" fill-opacity="0" stroke-miterlimit="10" stroke="rgb(247,236,222)" stroke-opacity="1" stroke-width="12" d=" M221.5449981689453,818.85498046875 C221.5449981689453,818.85498046875 961.9710083007812,818.85498046875 961.9710083007812,818.85498046875 M218.99200439453125,361.8330078125 C218.99200439453125,361.8330078125 959.4180297851562,361.8330078125 959.4180297851562,361.8330078125 M150,587.9290161132812 C150,587.9290161132812 1025.8570556640625,587.9290161132812 1025.8570556640625,587.9290161132812"></path></g></g></g></g></svg>