<svg xmlns="http://www.w3.org/2000/svg" xmlns:xlink="http://www.w3.org/1999/xlink" viewBox="0 0 160 160" width="160" height="160" preserveAspectRatio="xMidYMid meet" style="width: 100%; height: 100%; transform: translate3d(0px, 0px, 0px); content-visibility: visible;"><defs><clipPath id="__lottie_element_226"><rect width="160" height="160" x="0" y="0"></rect></clipPath><clipPath id="__lottie_element_228"><path d="M0,0 L1920,0 L1920,1080 L0,1080z"></path></clipPath></defs><g clip-path="url(#__lottie_element_226)"><g clip-path="url(#__lottie_element_228)" transform="matrix(0.4399999976158142,0,0,0.4399999976158142,-428.3999938964844,-150.60000610351562)" opacity="1" style="display: block;"><g transform="matrix(0.9800000190734863,0,0,0.9800000190734863,943.8348999023438,340.1518249511719)" opacity="1" style="display: block;"><g opacity="1" transform="matrix(1,0,0,1,216.74600219726562,188.74600219726562)"><path stroke-linecap="butt" stroke-linejoin="miter" fill-opacity="0" stroke-miterlimit="4" stroke="rgb(247,236,222)" stroke-opacity="1" stroke-width="2.5" d=" M0,-172.74600219726562 C-95.40499877929688,-172.74600219726562 -172.74600219726562,-95.40499877929688 -172.74600219726562,0 C-172.74600219726562,95.40499877929688 -95.40499877929688,172.74600219726562 0,172.74600219726562 C95.40499877929688,172.74600219726562 172.74600219726562,95.40499877929688 172.74600219726562,0 C172.74600219726562,-95.40499877929688 95.40499877929688,-172.74600219726562 0,-172.74600219726562z"></path></g></g><g transform="matrix(0.9800000190734863,0,0,0.9800000190734863,943.8348999023438,340.1518249511719)" opacity="1" style="display: block;"><g opacity="1" transform="matrix(1,0,0,1,216.74600219726562,188.74600219726562)"><path stroke-linecap="butt" stroke-linejoin="miter" fill-opacity="0" stroke-miterlimit="4" stroke="rgb(247,236,222)" stroke-opacity="1" stroke-width="6" d=" M0,-172.74600219726562 C-95.40499877929688,-172.74600219726562 -172.74600219726562,-95.40499877929688 -172.74600219726562,0 C-172.74600219726562,95.40499877929688 -95.40499877929688,172.74600219726562 0,172.74600219726562 C95.40499877929688,172.74600219726562 172.74600219726562,95.40499877929688 172.74600219726562,0 C172.74600219726562,-95.40499877929688 95.40499877929688,-172.74600219726562 0,-172.74600219726562z"></path></g></g><g transform="matrix(0.9800000190734863,0,0,0,943.8348999023438,694.4140014648438)" opacity="1" style="display: block;"><g opacity="1" transform="matrix(1,0,0,1,216.74600219726562,188.74600219726562)"><path stroke-linecap="butt" stroke-linejoin="miter" fill-opacity="0" stroke-miterlimit="4" stroke="rgb(247,236,222)" stroke-opacity="1" stroke-width="6" d=" M0,-172.74600219726562 C-95.40499877929688,-172.74600219726562 -172.74600219726562,-95.40499877929688 -172.74600219726562,0 C-172.74600219726562,95.40499877929688 -95.40499877929688,172.74600219726562 0,172.74600219726562 C95.40499877929688,172.74600219726562 172.74600219726562,95.40499877929688 172.74600219726562,0 C172.74600219726562,-95.40499877929688 95.40499877929688,-172.74600219726562 0,-172.74600219726562z"></path></g></g><g transform="matrix(0.9800000190734863,0,0,0,943.8348999023438,694.4140014648438)" opacity="1" style="display: block;"><g opacity="1" transform="matrix(1,0,0,1,216.74600219726562,188.74600219726562)"><path stroke-linecap="butt" stroke-linejoin="miter" fill-opacity="0" stroke-miterlimit="4" stroke="rgb(247,236,222)" stroke-opacity="1" stroke-width="6" d=" M0,-172.74600219726562 C-95.40499877929688,-172.74600219726562 -172.74600219726562,-95.40499877929688 -172.74600219726562,0 C-172.74600219726562,95.40499877929688 -95.40499877929688,172.74600219726562 0,172.74600219726562 C95.40499877929688,172.74600219726562 172.74600219726562,95.40499877929688 172.74600219726562,0 C172.74600219726562,-95.40499877929688 95.40499877929688,-172.74600219726562 0,-172.74600219726562z"></path></g></g><g transform="matrix(0.9800000190734863,0,0,0,943.8348999023438,694.4140014648438)" opacity="1" style="display: block;"><g opacity="1" transform="matrix(1,0,0,1,216.74600219726562,188.74600219726562)"><path stroke-linecap="butt" stroke-linejoin="miter" fill-opacity="0" stroke-miterlimit="4" stroke="rgb(247,236,222)" stroke-opacity="1" stroke-width="6" d=" M0,-172.74600219726562 C-95.40499877929688,-172.74600219726562 -172.74600219726562,-95.40499877929688 -172.74600219726562,0 C-172.74600219726562,95.40499877929688 -95.40499877929688,172.74600219726562 0,172.74600219726562 C95.40499877929688,172.74600219726562 172.74600219726562,95.40499877929688 172.74600219726562,0 C172.74600219726562,-95.40499877929688 95.40499877929688,-172.74600219726562 0,-172.74600219726562z"></path></g></g><g transform="matrix(0.9800000190734863,0,0,0.039666272699832916,943.8348999023438,680.074951171875)" opacity="1" style="display: block;"><g opacity="1" transform="matrix(1,0,0,1,216.74600219726562,188.74600219726562)"><path stroke-linecap="butt" stroke-linejoin="miter" fill-opacity="0" stroke-miterlimit="4" stroke="rgb(247,236,222)" stroke-opacity="1" stroke-width="6" d=" M0,-172.74600219726562 C-95.40499877929688,-172.74600219726562 -172.74600219726562,-95.40499877929688 -172.74600219726562,0 C-172.74600219726562,95.40499877929688 -95.40499877929688,172.74600219726562 0,172.74600219726562 C95.40499877929688,172.74600219726562 172.74600219726562,95.40499877929688 172.74600219726562,0 C172.74600219726562,-95.40499877929688 95.40499877929688,-172.74600219726562 0,-172.74600219726562z"></path></g></g><g transform="matrix(0.9800000190734863,0,0,0.19366997480392456,943.8348999023438,624.4038696289062)" opacity="1" style="display: block;"><g opacity="1" transform="matrix(1,0,0,1,216.74600219726562,188.74600219726562)"><path stroke-linecap="butt" stroke-linejoin="miter" fill-opacity="0" stroke-miterlimit="4" stroke="rgb(247,236,222)" stroke-opacity="1" stroke-width="6" d=" M0,-172.74600219726562 C-95.40499877929688,-172.74600219726562 -172.74600219726562,-95.40499877929688 -172.74600219726562,0 C-172.74600219726562,95.40499877929688 -95.40499877929688,172.74600219726562 0,172.74600219726562 C95.40499877929688,172.74600219726562 172.74600219726562,95.40499877929688 172.74600219726562,0 C172.74600219726562,-95.40499877929688 95.40499877929688,-172.74600219726562 0,-172.74600219726562z"></path></g></g><g transform="matrix(0.9800000190734863,0,0,0.39138612151145935,943.8348999023438,552.9310302734375)" opacity="1" style="display: block;"><g opacity="1" transform="matrix(1,0,0,1,216.74600219726562,188.74600219726562)"><path stroke-linecap="butt" stroke-linejoin="miter" fill-opacity="0" stroke-miterlimit="4" stroke="rgb(247,236,222)" stroke-opacity="1" stroke-width="6" d=" M0,-172.74600219726562 C-95.40499877929688,-172.74600219726562 -172.74600219726562,-95.40499877929688 -172.74600219726562,0 C-172.74600219726562,95.40499877929688 -95.40499877929688,172.74600219726562 0,172.74600219726562 C95.40499877929688,172.74600219726562 172.74600219726562,95.40499877929688 172.74600219726562,0 C172.74600219726562,-95.40499877929688 95.40499877929688,-172.74600219726562 0,-172.74600219726562z"></path></g></g><g transform="matrix(0.9800000190734863,0,0,0.9800000190734863,943.8348999023438,340.1518249511719)" opacity="1" style="display: block;"><g opacity="1" transform="matrix(1,0,0,1,216.74600219726562,188.74600219726562)"><path stroke-linecap="butt" stroke-linejoin="miter" fill-opacity="0" stroke-miterlimit="4" stroke="rgb(247,236,222)" stroke-opacity="1" stroke-width="2.5" d=" M0,-172.74600219726562 C-95.40499877929688,-172.74600219726562 -172.74600219726562,-95.40499877929688 -172.74600219726562,0 C-172.74600219726562,95.40499877929688 -95.40499877929688,172.74600219726562 0,172.74600219726562 C95.40499877929688,172.74600219726562 172.74600219726562,95.40499877929688 172.74600219726562,0 C172.74600219726562,-95.40499877929688 95.40499877929688,-172.74600219726562 0,-172.74600219726562z"></path></g></g><g style="display: none;"><g><path stroke-linecap="butt" stroke-linejoin="miter" fill-opacity="0" stroke-miterlimit="4"></path></g></g><g transform="matrix(0.9800000190734863,0,0,0.7524976134300232,943.8348999023438,422.3921203613281)" opacity="1" style="display: block;"><g opacity="1" transform="matrix(1,0,0,1,216.74600219726562,188.74600219726562)"><path stroke-linecap="butt" stroke-linejoin="miter" fill-opacity="0" stroke-miterlimit="4" stroke="rgb(247,236,222)" stroke-opacity="1" stroke-width="6" d=" M0,-172.74600219726562 C-95.40499877929688,-172.74600219726562 -172.74600219726562,-95.40499877929688 -172.74600219726562,0 C-172.74600219726562,95.40499877929688 -95.40499877929688,172.74600219726562 0,172.74600219726562 C95.40499877929688,172.74600219726562 172.74600219726562,95.40499877929688 172.74600219726562,0 C172.74600219726562,-95.40499877929688 95.40499877929688,-172.74600219726562 0,-172.74600219726562z"></path></g></g><g transform="matrix(0.9800000190734863,0,0,0.9422214031219482,943.8348999023438,353.8085021972656)" opacity="1" style="display: block;"><g opacity="1" transform="matrix(1,0,0,1,216.74600219726562,188.74600219726562)"><path stroke-linecap="butt" stroke-linejoin="miter" fill-opacity="0" stroke-miterlimit="4" stroke="rgb(247,236,222)" stroke-opacity="1" stroke-width="6" d=" M0,-172.74600219726562 C-95.40499877929688,-172.74600219726562 -172.74600219726562,-95.40499877929688 -172.74600219726562,0 C-172.74600219726562,95.40499877929688 -95.40499877929688,172.74600219726562 0,172.74600219726562 C95.40499877929688,172.74600219726562 172.74600219726562,95.40499877929688 172.74600219726562,0 C172.74600219726562,-95.40499877929688 95.40499877929688,-172.74600219726562 0,-172.74600219726562z"></path></g></g><g transform="matrix(0.9800000190734863,0,0,0.9800000190734863,943.8348999023438,340.1518249511719)" opacity="1" style="display: block;"><g opacity="1" transform="matrix(1,0,0,1,216.74600219726562,188.74600219726562)"><path stroke-linecap="butt" stroke-linejoin="miter" fill-opacity="0" stroke-miterlimit="4" stroke="rgb(247,236,222)" stroke-opacity="1" stroke-width="6" d=" M0,-172.74600219726562 C-95.40499877929688,-172.74600219726562 -172.74600219726562,-95.40499877929688 -172.74600219726562,0 C-172.74600219726562,95.40499877929688 -95.40499877929688,172.74600219726562 0,172.74600219726562 C95.40499877929688,172.74600219726562 172.74600219726562,95.40499877929688 172.74600219726562,0 C172.74600219726562,-95.40499877929688 95.40499877929688,-172.74600219726562 0,-172.74600219726562z"></path></g></g><g transform="matrix(0.9800000190734863,0,0,0.9800000190734863,943.8348999023438,340.1518249511719)" opacity="1" style="display: block;"><g opacity="1" transform="matrix(1,0,0,1,216.74600219726562,188.74600219726562)"><path stroke-linecap="butt" stroke-linejoin="miter" fill-opacity="0" stroke-miterlimit="4" stroke="rgb(247,236,222)" stroke-opacity="1" stroke-width="6" d=" M0,-172.74600219726562 C-95.40499877929688,-172.74600219726562 -172.74600219726562,-95.40499877929688 -172.74600219726562,0 C-172.74600219726562,95.40499877929688 -95.40499877929688,172.74600219726562 0,172.74600219726562 C95.40499877929688,172.74600219726562 172.74600219726562,95.40499877929688 172.74600219726562,0 C172.74600219726562,-95.40499877929688 95.40499877929688,-172.74600219726562 0,-172.74600219726562z"></path></g></g><g transform="matrix(0.9800000190734863,0,0,0.9800000190734863,943.8348999023438,340.1518249511719)" opacity="1" style="display: block;"><g opacity="1" transform="matrix(1,0,0,1,216.74600219726562,188.74600219726562)"><path stroke-linecap="butt" stroke-linejoin="miter" fill-opacity="0" stroke-miterlimit="4" stroke="rgb(247,236,222)" stroke-opacity="1" stroke-width="6" d=" M0,-172.74600219726562 C-95.40499877929688,-172.74600219726562 -172.74600219726562,-95.40499877929688 -172.74600219726562,0 C-172.74600219726562,95.40499877929688 -95.40499877929688,172.74600219726562 0,172.74600219726562 C95.40499877929688,172.74600219726562 172.74600219726562,95.40499877929688 172.74600219726562,0 C172.74600219726562,-95.40499877929688 95.40499877929688,-172.74600219726562 0,-172.74600219726562z"></path></g></g><g transform="matrix(0.9800000190734863,0,0,0.9800000190734863,943.8348999023438,340.1518249511719)" opacity="1" style="display: block;"><g opacity="1" transform="matrix(1,0,0,1,216.74600219726562,188.74600219726562)"><path stroke-linecap="butt" stroke-linejoin="miter" fill-opacity="0" stroke-miterlimit="4" stroke="rgb(247,236,222)" stroke-opacity="1" stroke-width="6" d=" M0,-172.74600219726562 C-95.40499877929688,-172.74600219726562 -172.74600219726562,-95.40499877929688 -172.74600219726562,0 C-172.74600219726562,95.40499877929688 -95.40499877929688,172.74600219726562 0,172.74600219726562 C95.40499877929688,172.74600219726562 172.74600219726562,95.40499877929688 172.74600219726562,0 C172.74600219726562,-95.40499877929688 95.40499877929688,-172.74600219726562 0,-172.74600219726562z"></path></g></g></g></g></svg>