<svg xmlns="http://www.w3.org/2000/svg" xmlns:xlink="http://www.w3.org/1999/xlink" viewBox="0 0 170 170" width="170" height="170" preserveAspectRatio="xMidYMid meet" style="width: 100%; height: 100%; transform: translate3d(0px, 0px, 0px); content-visibility: visible;"><defs><clipPath id="__lottie_element_165"><rect width="170" height="170" x="0" y="0"></rect></clipPath></defs><g clip-path="url(#__lottie_element_165)"><g transform="matrix(0.999840497970581,0.01786084473133087,-0.01786084473133087,0.999840497970581,85,85)" opacity="1" style="display: block;"><g opacity="1" transform="matrix(1,0,0,1,0,0)"><path fill="rgb(61,131,113)" fill-opacity="1" d=" M72.64800262451172,-39.652000427246094 C72.64800262451172,-39.652000427246094 0,-78.48500061035156 0,-78.48500061035156 C0,-78.48500061035156 -72.64800262451172,-39.652000427246094 -72.64800262451172,-39.652000427246094 C-73.11900329589844,-39.400001525878906 -73.41400146484375,-38.909000396728516 -73.41400146484375,-38.374000549316406 C-73.41400146484375,-38.374000549316406 -73.41400146484375,38.374000549316406 -73.41400146484375,38.374000549316406 C-73.41400146484375,38.90800094604492 -73.11900329589844,39.39899826049805 -72.64800262451172,39.6510009765625 C-72.64800262451172,39.6510009765625 0,78.48500061035156 0,78.48500061035156 C0,78.48500061035156 72.64800262451172,39.6510009765625 72.64800262451172,39.6510009765625 C73.12000274658203,39.39899826049805 73.41400146484375,38.90800094604492 73.41400146484375,38.374000549316406 C73.41400146484375,38.374000549316406 73.41400146484375,-38.374000549316406 73.41400146484375,-38.374000549316406 C73.41400146484375,-38.909000396728516 73.12000274658203,-39.400001525878906 72.64800262451172,-39.652000427246094z M-70.91400146484375,-36.558998107910156 C-70.91400146484375,-36.558998107910156 -2.6480000019073486,0 -2.6480000019073486,0 C-2.6480000019073486,0 -70.91400146484375,36.558998107910156 -70.91400146484375,36.558998107910156 C-70.91400146484375,36.558998107910156 -70.91400146484375,-36.558998107910156 -70.91400146484375,-36.558998107910156z M-1.25,74.98200225830078 C-1.25,74.98200225830078 -69.37100219726562,38.56800079345703 -69.37100219726562,38.56800079345703 C-69.37100219726562,38.56800079345703 -1.25,2.0869998931884766 -1.25,2.0869998931884766 C-1.25,2.0869998931884766 -1.25,74.98200225830078 -1.25,74.98200225830078z M-1.25,-2.0880000591278076 C-1.25,-2.0880000591278076 -69.37100219726562,-38.569000244140625 -69.37100219726562,-38.569000244140625 C-69.37100219726562,-38.569000244140625 -1.25,-74.98200225830078 -1.25,-74.98200225830078 C-1.25,-74.98200225830078 -1.25,-2.0880000591278076 -1.25,-2.0880000591278076z M1.25,-74.98200225830078 C1.25,-74.98200225830078 69.37100219726562,-38.569000244140625 69.37100219726562,-38.569000244140625 C69.37100219726562,-38.569000244140625 1.25,-2.0880000591278076 1.25,-2.0880000591278076 C1.25,-2.0880000591278076 1.25,-74.98200225830078 1.25,-74.98200225830078z M1.25,74.98200225830078 C1.25,74.98200225830078 1.25,2.0869998931884766 1.25,2.0869998931884766 C1.25,2.0869998931884766 69.37100219726562,38.56800079345703 69.37100219726562,38.56800079345703 C69.37100219726562,38.56800079345703 1.25,74.98200225830078 1.25,74.98200225830078z M70.91400146484375,36.558998107910156 C70.91400146484375,36.558998107910156 2.6480000019073486,0 2.6480000019073486,0 C2.6480000019073486,0 70.91400146484375,-36.558998107910156 70.91400146484375,-36.558998107910156 C70.91400146484375,-36.558998107910156 70.91400146484375,36.558998107910156 70.91400146484375,36.558998107910156z"></path></g></g></g></svg>