<svg xmlns="http://www.w3.org/2000/svg" xmlns:xlink="http://www.w3.org/1999/xlink" viewBox="0 0 160 160" width="160" height="160" preserveAspectRatio="xMidYMid meet" style="width: 100%; height: 100%; transform: translate3d(0px, 0px, 0px); content-visibility: visible;"><defs><clipPath id="__lottie_element_279"><rect width="160" height="160" x="0" y="0"></rect></clipPath><image xlink:href="https://d2gimqwtyxfuba.cloudfront.net/images/video_0.png"></image><clipPath id="__lottie_element_281"><path d="M0,0 L1920,0 L1920,1080 L0,1080z"></path></clipPath><g id="__lottie_element_287"><g transform="matrix(2.8802199363708496,0,0,2.8802199363708496,2741.215087890625,1645.539306640625)" opacity="1" style="display: block;"><g opacity="1" transform="matrix(1,0,0,1,0,0)"><path stroke-linecap="butt" stroke-linejoin="miter" fill-opacity="0" stroke-miterlimit="4" stroke="rgb(255,255,255)" stroke-opacity="1" stroke-width="27" d=" M-634.25,-330 C-634.25,-330 -635.75,-376 -635.75,-376 C-635.75,-376 -677,-378.25 -677,-378.25"></path></g><g opacity="1" transform="matrix(1,0,0,1,0,0)"><path stroke-linecap="butt" stroke-linejoin="miter" fill-opacity="0" stroke-miterlimit="4" stroke="rgb(255,255,255)" stroke-opacity="1" stroke-width="27" d=" M-638.426025390625,-240.697998046875"></path></g></g></g><g id="__lottie_element_293"><g transform="matrix(2.8802199363708496,0,0,2.8802199363708496,2741.215087890625,1645.539306640625)" opacity="1" style="display: block;"><g opacity="1" transform="matrix(1,0,0,1,0,0)"><path stroke-linecap="butt" stroke-linejoin="miter" fill-opacity="0" stroke-miterlimit="4" stroke="rgb(255,255,255)" stroke-opacity="1" stroke-width="27" d=" M-637.75,-401.75 C-637.75,-401.75 -643.75,-428.75 -678.75,-428.5 C-713.75,-428.25 -720.3319702148438,-396.6820068359375 -717.75,-375.25 C-715.25,-354.5 -700.3369750976562,-340.302001953125 -677.75,-341.25 C-642,-342.75 -636.5,-372.5 -636.5,-372.5"></path></g></g></g><mask id="__lottie_element_293_1" mask-type="alpha"><use xlink:href="#__lottie_element_293"></use></mask><mask id="__lottie_element_287_1" mask-type="alpha"><use xlink:href="#__lottie_element_287"></use></mask></defs><g clip-path="url(#__lottie_element_279)"><g clip-path="url(#__lottie_element_281)" transform="matrix(0.47999998927116394,0,0,0.47999998927116394,-461.79998779296875,-180.19998168945312)" opacity="1" style="display: block;"><g mask="url(#__lottie_element_287_1)" style="display: block;"><g transform="matrix(2.8802199363708496,0,0,2.8802199363708496,792.02001953125,538.7960205078125)" opacity="1"><g opacity="1" transform="matrix(1,0,0,1,0,0)"><path fill="rgb(247,236,222)" fill-opacity="1" d=" M30.5310001373291,40.65399932861328 C24.368999481201172,48.625 13.326000213623047,55.625 0,55.625 C-30.31399917602539,55.625 -53.24800109863281,33.95899963378906 -53.24800109863281,0.008999999612569809 C-53.24800109863281,-33.939998626708984 -31.242000579833984,-55.625 1.7209999561309814,-55.625 C23.85300064086914,-55.625 42.731998443603516,-41.34199905395508 49.167999267578125,-19.988000869750977 C49.167999267578125,-19.988000869750977 25.667999267578125,-19.988000869750977 25.667999267578125,-19.988000869750977 C22.000999450683594,-27.799999237060547 12.814000129699707,-32.888999938964844 1.4490000009536743,-32.888999938964844 C-17.386999130249023,-32.888999938964844 -29.884000778198242,-20.295000076293945 -29.884000778198242,0.008999999612569809 C-29.884000778198242,22.378999710083008 -15.21399974822998,32.8849983215332 -0.9190000295639038,32.8849983215332 C11.836000442504883,32.8849983215332 21.933000564575195,25.5049991607666 26.333999633789062,16.257999420166016 C26.333999633789062,16.257999420166016 38.43000030517578,31.562000274658203 38.43000030517578,31.562000274658203 C38.43000030517578,31.562000274658203 30.854000091552734,40.236000061035156 30.5310001373291,40.65399932861328z"></path></g></g></g><g mask="url(#__lottie_element_293_1)" style="display: block;"><g transform="matrix(2.8802199363708496,0,0,2.8802199363708496,792.02001953125,538.7960205078125)" opacity="1"><g opacity="1" transform="matrix(1,0,0,1,0,0)"><path fill="rgb(247,236,222)" fill-opacity="1" d=" M3.4140000343322754,-3.5899999141693115 C3.4140000343322754,-3.5899999141693115 53.24800109863281,-3.5950000286102295 53.24800109863281,-3.5950000286102295 C53.24800109863281,-3.5950000286102295 53.24800109863281,53.0359992980957 53.24800109863281,53.0359992980957 C53.24800109863281,53.0359992980957 33.79199981689453,53.0359992980957 33.79199981689453,53.0359992980957 C33.79199981689453,53.0359992980957 33.79199981689453,42.263999938964844 33.79199981689453,42.263999938964844 C34.50299835205078,34.6510009765625 24.097000122070312,46.07899856567383 23.336000442504883,43.32699966430664 C21.23699951171875,35.742000579833984 26.457000732421875,16.44099998474121 26.333999633789062,16.257999420166016 C26.333999633789062,16.257999420166016 3.4140000343322754,16.257999420166016 3.4140000343322754,16.257999420166016 C3.4140000343322754,16.257999420166016 3.4140000343322754,-3.5899999141693115 3.4140000343322754,-3.5899999141693115z"></path></g></g></g><g transform="matrix(1,0,0,1,1128.5889892578125,541.2899780273438)" opacity="1" style="display: block;"><g opacity="1" transform="matrix(1,0,0,1,0,0)"><path stroke-linecap="butt" stroke-linejoin="miter" fill-opacity="0" stroke-miterlimit="4" stroke="rgb(61,131,113)" stroke-opacity="1" stroke-width="6" d=" M0,155.6699981689453 C-85.9749984741211,155.6699981689453 -155.6719970703125,85.97000122070312 -155.6719970703125,0 C-155.6719970703125,-85.9800033569336 -85.9749984741211,-155.6699981689453 0,-155.6699981689453 C85.97599792480469,-155.6699981689453 155.6719970703125,-85.9800033569336 155.6719970703125,0 C155.6719970703125,0 155.6719970703125,0 155.6719970703125,0 C155.6719970703125,85.97000122070312 85.97599792480469,155.6699981689453 0,155.6699981689453 C0,155.6699981689453 0,155.6699981689453 0,155.6699981689453"></path></g></g><g transform="matrix(1,0,0,1,1128.5889892578125,541.2849731445312)" opacity="1" style="display: none;"><g opacity="1" transform="matrix(1,0,0,1,0,0)"><path stroke-linecap="butt" stroke-linejoin="miter" fill-opacity="0" stroke-miterlimit="4" stroke="rgb(61,131,113)" stroke-opacity="1" stroke-width="6" d=" M5.754659652709961,0.26193001866340637 C5.754659652709961,3.4998576641082764 3.129167079925537,6.125120162963867 -0.10988160222768784,6.125120162963867 C-3.3489303588867188,6.125120162963867 -5.974422454833984,3.4998576641082764 -5.974422454833984,0.26193001866340637 C-5.974422454833984,-2.9759976863861084 -3.3489303588867188,-5.603961944580078 -0.10988160222768784,-5.603961944580078 C3.129167079925537,-5.603961944580078 5.754659652709961,-2.9759976863861084 5.754659652709961,0.26193001866340637z"></path></g></g><g transform="matrix(1,0,0,1,1128.5889892578125,541.2849731445312)" opacity="1" style="display: block;"><g opacity="1" transform="matrix(1,0,0,1,0,0)"><path stroke-linecap="butt" stroke-linejoin="miter" fill-opacity="0" stroke-miterlimit="4" stroke="rgb(61,131,113)" stroke-opacity="1" stroke-width="6" d=" M7.309380054473877,0.26018446683883667 C7.309380054473877,4.355666637420654 3.988610029220581,7.676012992858887 -0.1080951988697052,7.676012992858887 C-4.204800605773926,7.676012992858887 -7.525570869445801,4.355666637420654 -7.525570869445801,0.26018446683883667 C-7.525570869445801,-3.8352978229522705 -4.204800605773926,-7.158937931060791 -0.1080951988697052,-7.158937931060791 C3.988610029220581,-7.158937931060791 7.309380054473877,-3.8352978229522705 7.309380054473877,0.26018446683883667z"></path></g></g><g transform="matrix(1,0,0,1,1128.5889892578125,541.2849731445312)" opacity="1" style="display: block;"><g opacity="1" transform="matrix(1,0,0,1,0,0)"><path stroke-linecap="butt" stroke-linejoin="miter" fill-opacity="0" stroke-miterlimit="4" stroke="rgb(61,131,113)" stroke-opacity="1" stroke-width="6" d=" M32.10305404663086,0.2323472499847412 C32.10305404663086,18.003549575805664 17.694446563720703,32.40864181518555 -0.07960683107376099,32.40864181518555 C-17.853660583496094,32.40864181518555 -32.26226806640625,18.003549575805664 -32.26226806640625,0.2323472499847412 C-32.26226806640625,-17.538856506347656 -17.853660583496094,-31.956682205200195 -0.07960683107376099,-31.956682205200195 C17.694446563720703,-31.956682205200195 32.10305404663086,-17.538856506347656 32.10305404663086,0.2323472499847412z"></path></g></g><g transform="matrix(1,0,0,1,1128.5889892578125,541.2849731445312)" opacity="1" style="display: block;"><g opacity="1" transform="matrix(1,0,0,1,0,0)"><path stroke-linecap="butt" stroke-linejoin="miter" fill-opacity="0" stroke-miterlimit="4" stroke="rgb(61,131,113)" stroke-opacity="1" stroke-width="6" d=" M56.896728515625,0.20451003313064575 C56.896728515625,31.65143394470215 31.400283813476562,57.14126968383789 -0.051118455827236176,57.14126968383789 C-31.502521514892578,57.14126968383789 -56.998966217041016,31.65143394470215 -56.998966217041016,0.20451003313064575 C-56.998966217041016,-31.242414474487305 -31.502521514892578,-56.754425048828125 -0.051118455827236176,-56.754425048828125 C31.400283813476562,-56.754425048828125 56.896728515625,-31.242414474487305 56.896728515625,0.20451003313064575z"></path></g></g><g transform="matrix(1,0,0,1,1128.5889892578125,541.2849731445312)" opacity="1" style="display: block;"><g opacity="1" transform="matrix(1,0,0,1,0,0)"><path stroke-linecap="butt" stroke-linejoin="miter" fill-opacity="0" stroke-miterlimit="4" stroke="rgb(61,131,113)" stroke-opacity="1" stroke-width="6" d=" M79.91942596435547,0.17866119742393494 C79.91942596435547,44.32447052001953 44.127132415771484,80.1072769165039 -0.024664968252182007,80.1072769165039 C-44.17646408081055,80.1072769165039 -79.96875762939453,44.32447052001953 -79.96875762939453,0.17866119742393494 C-79.96875762939453,-43.96714782714844 -44.17646408081055,-79.7809066772461 -0.024664968252182007,-79.7809066772461 C44.127132415771484,-79.7809066772461 79.91942596435547,-43.96714782714844 79.91942596435547,0.17866119742393494z"></path></g></g><g transform="matrix(1,0,0,1,1128.5889892578125,541.2849731445312)" opacity="1" style="display: block;"><g opacity="1" transform="matrix(1,0,0,1,0,0)"><path stroke-linecap="butt" stroke-linejoin="miter" fill-opacity="0" stroke-miterlimit="4" stroke="rgb(61,131,113)" stroke-opacity="1" stroke-width="6" d=" M104.71310424804688,0.15082399547100067 C104.71310424804688,57.97235107421875 57.832969665527344,104.83990478515625 0.0038234039675444365,104.83990478515625 C-57.82532501220703,104.83990478515625 -104.70545196533203,57.97235107421875 -104.70545196533203,0.15082399547100067 C-104.70545196533203,-57.67070388793945 -57.82532501220703,-104.57864379882812 0.0038234039675444365,-104.57864379882812 C57.832969665527344,-104.57864379882812 104.71310424804688,-57.67070388793945 104.71310424804688,0.15082399547100067z"></path></g></g><g transform="matrix(1,0,0,1,1128.5889892578125,541.2849731445312)" opacity="1" style="display: block;"><g opacity="1" transform="matrix(1,0,0,1,0,0)"><path stroke-linecap="butt" stroke-linejoin="miter" fill-opacity="0" stroke-miterlimit="4" stroke="rgb(61,131,113)" stroke-opacity="1" stroke-width="6" d=" M129.50677490234375,0.12298677861690521 C129.50677490234375,71.6202392578125 71.53881072998047,129.57254028320312 0.03231177479028702,129.57254028320312 C-71.47418212890625,129.57254028320312 -129.44215393066406,71.6202392578125 -129.44215393066406,0.12298677861690521 C-129.44215393066406,-71.37425994873047 -71.47418212890625,-129.3763885498047 0.03231177479028702,-129.3763885498047 C71.53881072998047,-129.3763885498047 129.50677490234375,-71.37425994873047 129.50677490234375,0.12298677861690521z"></path></g></g><g transform="matrix(1,0,0,1,1128.5889892578125,541.2849731445312)" opacity="1" style="display: block;"><g opacity="1" transform="matrix(1,0,0,1,0,0)"><path stroke-linecap="butt" stroke-linejoin="miter" fill-opacity="0" stroke-miterlimit="4" stroke="rgb(61,131,113)" stroke-opacity="1" stroke-width="6" d=" M154.30044555664062,0.09514956921339035 C154.30044555664062,85.26811981201172 85.24464416503906,154.30516052246094 0.06080014631152153,154.30516052246094 C-85.123046875,154.30516052246094 -154.17884826660156,85.26811981201172 -154.17884826660156,0.09514956921339035 C-154.17884826660156,-85.07781982421875 -85.123046875,-154.17413330078125 0.06080014631152153,-154.17413330078125 C85.24464416503906,-154.17413330078125 154.30044555664062,-85.07781982421875 154.30044555664062,0.09514956921339035z"></path></g></g><g transform="matrix(1,0,0,1,1128.5889892578125,541.2849731445312)" opacity="1" style="display: block;"><g opacity="1" transform="matrix(1,0,0,1,0,0)"><path stroke-linecap="butt" stroke-linejoin="miter" fill-opacity="0" stroke-miterlimit="4" stroke="rgb(61,131,113)" stroke-opacity="1" stroke-width="6" d=" M156.21499633789062,0.09300000220537186 C156.21499633789062,86.3219985961914 86.3030014038086,156.21499633789062 0.06300000101327896,156.21499633789062 C-86.177001953125,156.21499633789062 -156.08900451660156,86.3219985961914 -156.08900451660156,0.09300000220537186 C-156.08900451660156,-86.13600158691406 -86.177001953125,-156.08900451660156 0.06300000101327896,-156.08900451660156 C86.3030014038086,-156.08900451660156 156.21499633789062,-86.13600158691406 156.21499633789062,0.09300000220537186z"></path></g></g><g transform="matrix(1,0,0,1,1128.5889892578125,541.2849731445312)" opacity="1" style="display: block;"><g opacity="1" transform="matrix(1,0,0,1,0,0)"><path stroke-linecap="butt" stroke-linejoin="miter" fill-opacity="0" stroke-miterlimit="4" stroke="rgb(61,131,113)" stroke-opacity="1" stroke-width="6" d=" M0.06300000101327896,156.21499633789062 C-86.177001953125,156.21499633789062 -156.08900451660156,86.3219985961914 -156.08900451660156,0.09300000220537186 C-156.08900451660156,-86.13600158691406 -86.177001953125,-156.08900451660156 0.06300000101327896,-156.08900451660156 C86.3030014038086,-156.08900451660156 156.21499633789062,-86.13600158691406 156.21499633789062,0.09300000220537186 C156.21499633789062,0.09300000220537186 156.21499633789062,0.09300000220537186 156.21499633789062,0.09300000220537186 C156.21499633789062,86.3219985961914 86.3030014038086,156.21499633789062 0.06300000101327896,156.21499633789062 C0.06300000101327896,156.21499633789062 0.06300000101327896,156.21499633789062 0.06300000101327896,156.21499633789062"></path></g></g><g transform="matrix(1,0,0,1,1128.5889892578125,541.2849731445312)" opacity="1" style="display: block;"><g opacity="1" transform="matrix(1,0,0,1,0,0)"><path stroke-linecap="butt" stroke-linejoin="miter" fill-opacity="0" stroke-miterlimit="4" stroke="rgb(61,131,113)" stroke-opacity="1" stroke-width="6" d=" M0.06300000101327896,156.21499633789062 C-86.177001953125,156.21499633789062 -156.08900451660156,86.3219985961914 -156.08900451660156,0.09300000220537186 C-156.08900451660156,-86.13600158691406 -86.177001953125,-156.08900451660156 0.06300000101327896,-156.08900451660156 C86.3030014038086,-156.08900451660156 156.21499633789062,-86.13600158691406 156.21499633789062,0.09300000220537186 C156.21499633789062,0.09300000220537186 156.21499633789062,0.09300000220537186 156.21499633789062,0.09300000220537186 C156.21499633789062,86.3219985961914 86.3030014038086,156.21499633789062 0.06300000101327896,156.21499633789062 C0.06300000101327896,156.21499633789062 0.06300000101327896,156.21499633789062 0.06300000101327896,156.21499633789062"></path></g></g><g transform="matrix(1,0,0,1,1128.5889892578125,541.2849731445312)" opacity="1" style="display: none;"><g opacity="1" transform="matrix(1,0,0,1,0,0)"><path stroke-linecap="butt" stroke-linejoin="miter" fill-opacity="0" stroke-miterlimit="4" stroke="rgb(61,131,113)" stroke-opacity="1" stroke-width="6" d=" M0.06300000101327896,156.21499633789062 C-86.177001953125,156.21499633789062 -156.08900451660156,86.3219985961914 -156.08900451660156,0.09300000220537186 C-156.08900451660156,-86.13600158691406 -86.177001953125,-156.08900451660156 0.06300000101327896,-156.08900451660156 C86.3030014038086,-156.08900451660156 156.21499633789062,-86.13600158691406 156.21499633789062,0.09300000220537186 C156.21499633789062,0.09300000220537186 156.21499633789062,0.09300000220537186 156.21499633789062,0.09300000220537186 C156.21499633789062,86.3219985961914 86.3030014038086,156.21499633789062 0.06300000101327896,156.21499633789062 C0.06300000101327896,156.21499633789062 0.06300000101327896,156.21499633789062 0.06300000101327896,156.21499633789062"></path></g></g><g transform="matrix(1,0,0,1,1128.5889892578125,541.2849731445312)" opacity="1" style="display: none;"><g opacity="1" transform="matrix(1,0,0,1,0,0)"><path stroke-linecap="butt" stroke-linejoin="miter" fill-opacity="0" stroke-miterlimit="4" stroke="rgb(61,131,113)" stroke-opacity="1" stroke-width="6" d=" M0.06300000101327896,156.21499633789062 C-86.177001953125,156.21499633789062 -156.08900451660156,86.3219985961914 -156.08900451660156,0.09300000220537186 C-156.08900451660156,-86.13600158691406 -86.177001953125,-156.08900451660156 0.06300000101327896,-156.08900451660156 C86.3030014038086,-156.08900451660156 156.21499633789062,-86.13600158691406 156.21499633789062,0.09300000220537186 C156.21499633789062,0.09300000220537186 156.21499633789062,0.09300000220537186 156.21499633789062,0.09300000220537186 C156.21499633789062,86.3219985961914 86.3030014038086,156.21499633789062 0.06300000101327896,156.21499633789062 C0.06300000101327896,156.21499633789062 0.06300000101327896,156.21499633789062 0.06300000101327896,156.21499633789062"></path></g></g><g transform="matrix(1,0,0,1,1128.5889892578125,541.2849731445312)" opacity="1" style="display: none;"><g opacity="1" transform="matrix(1,0,0,1,0,0)"><path stroke-linecap="butt" stroke-linejoin="miter" fill-opacity="0" stroke-miterlimit="4" stroke="rgb(61,131,113)" stroke-opacity="1" stroke-width="6" d=" M0.06300000101327896,156.21499633789062 C-86.177001953125,156.21499633789062 -156.08900451660156,86.3219985961914 -156.08900451660156,0.09300000220537186 C-156.08900451660156,-86.13600158691406 -86.177001953125,-156.08900451660156 0.06300000101327896,-156.08900451660156 C86.3030014038086,-156.08900451660156 156.21499633789062,-86.13600158691406 156.21499633789062,0.09300000220537186 C156.21499633789062,0.09300000220537186 156.21499633789062,0.09300000220537186 156.21499633789062,0.09300000220537186 C156.21499633789062,86.3219985961914 86.3030014038086,156.21499633789062 0.06300000101327896,156.21499633789062 C0.06300000101327896,156.21499633789062 0.06300000101327896,156.21499633789062 0.06300000101327896,156.21499633789062"></path></g></g><g transform="matrix(1,0,0,1,1128.5889892578125,541.2849731445312)" opacity="1" style="display: none;"><g opacity="1" transform="matrix(1,0,0,1,0,0)"><path stroke-linecap="butt" stroke-linejoin="miter" fill-opacity="0" stroke-miterlimit="4" stroke="rgb(61,131,113)" stroke-opacity="1" stroke-width="6" d=" M0.06300000101327896,156.21499633789062 C-86.177001953125,156.21499633789062 -156.08900451660156,86.3219985961914 -156.08900451660156,0.09300000220537186 C-156.08900451660156,-86.13600158691406 -86.177001953125,-156.08900451660156 0.06300000101327896,-156.08900451660156 C86.3030014038086,-156.08900451660156 156.21499633789062,-86.13600158691406 156.21499633789062,0.09300000220537186 C156.21499633789062,0.09300000220537186 156.21499633789062,0.09300000220537186 156.21499633789062,0.09300000220537186 C156.21499633789062,86.3219985961914 86.3030014038086,156.21499633789062 0.06300000101327896,156.21499633789062 C0.06300000101327896,156.21499633789062 0.06300000101327896,156.21499633789062 0.06300000101327896,156.21499633789062"></path></g></g><g transform="matrix(1,0,0,1,1052.251953125,538.3889770507812)" opacity="1" style="display: block;"><g opacity="1" transform="matrix(1,0,0,1,0,0)"><path stroke-linecap="butt" stroke-linejoin="miter" fill-opacity="0" stroke-miterlimit="10" stroke="rgb(247,236,222)" stroke-opacity="1" stroke-width="10" d="M0 0"></path></g></g><g transform="matrix(1,0,0,1,1052.251953125,538.3889770507812)" opacity="1" style="display: none;"><g opacity="1" transform="matrix(1,0,0,1,0,0)"><path stroke-linecap="butt" stroke-linejoin="miter" fill-opacity="0" stroke-miterlimit="10" stroke="rgb(247,236,222)" stroke-opacity="1" stroke-width="10" d="M0 0"></path></g></g></g></g></svg>