
      <svg xmlns="http://www.w3.org/2000/svg" xmlns:xlink="http://www.w3.org/1999/xlink" viewBox="0 0 160 160" width="160" height="160" preserveAspectRatio="xMidYMid meet" style="width: 100%; height: 100%; transform: translate3d(0px, 0px, 0px); content-visibility: visible;"><defs><clipPath id="__lottie_element_169"><rect width="160" height="160" x="0" y="0"></rect></clipPath><clipPath id="__lottie_element_174"><path fill="#ffffff" clip-rule="nonzero" d=" M79.67500305175781,1.9559999704360962 C37.84700012207031,1.9559999704360962 3.937999963760376,35.8650016784668 3.937999963760376,77.69300079345703 C3.937999963760376,119.52100372314453 37.84700012207031,153.42999267578125 79.67500305175781,153.42999267578125 C121.50299835205078,153.42999267578125 155.41200256347656,119.52100372314453 155.41200256347656,77.69300079345703 C155.41200256347656,35.8650016784668 121.50299835205078,1.9559999704360962 79.67500305175781,1.9559999704360962" fill-opacity="1"></path></clipPath><g id="__lottie_element_182"><g transform="matrix(1,0,0,1,0,54.91331481933594)" opacity="1" style="display: block;"><g opacity="1" transform="matrix(1,0,0,1,80.10600280761719,93.89099884033203)"><path stroke-linecap="butt" stroke-linejoin="round" fill-opacity="0" stroke="rgb(255,69,36)" stroke-opacity="1" stroke-width="2.487" d=" M83.84200286865234,0 C83.84200286865234,0 -83.84200286865234,0 -83.84200286865234,0"></path></g><g opacity="1" transform="matrix(1,0,0,1,80.10600280761719,80.12200164794922)"><path stroke-linecap="butt" stroke-linejoin="round" fill-opacity="0" stroke="rgb(255,69,36)" stroke-opacity="1" stroke-width="2.487" d=" M83.84200286865234,0 C83.84200286865234,0 -83.84200286865234,0 -83.84200286865234,0"></path></g><g opacity="1" transform="matrix(1,0,0,1,80.10600280761719,66.35299682617188)"><path stroke-linecap="butt" stroke-linejoin="round" fill-opacity="0" stroke="rgb(255,69,36)" stroke-opacity="1" stroke-width="2.487" d=" M83.84200286865234,0 C83.84200286865234,0 -83.84200286865234,0 -83.84200286865234,0"></path></g><g opacity="1" transform="matrix(1,0,0,1,80.10600280761719,52.58399963378906)"><path stroke-linecap="butt" stroke-linejoin="round" fill-opacity="0" stroke="rgb(255,69,36)" stroke-opacity="1" stroke-width="2.487" d=" M83.84200286865234,0 C83.84200286865234,0 -83.84200286865234,0 -83.84200286865234,0"></path></g><g opacity="1" transform="matrix(1,0,0,1,80.10600280761719,38.814998626708984)"><path stroke-linecap="butt" stroke-linejoin="round" fill-opacity="0" stroke="rgb(255,69,36)" stroke-opacity="1" stroke-width="2.487" d=" M83.84200286865234,0 C83.84200286865234,0 -83.84200286865234,0 -83.84200286865234,0"></path></g><g opacity="1" transform="matrix(1,0,0,1,80.10600280761719,25.04599952697754)"><path stroke-linecap="butt" stroke-linejoin="round" fill-opacity="0" stroke="rgb(255,69,36)" stroke-opacity="1" stroke-width="2.487" d=" M83.84200286865234,0 C83.84200286865234,0 -83.84200286865234,0 -83.84200286865234,0"></path></g><g opacity="1" transform="matrix(1,0,0,1,80.10600280761719,11.277000427246094)"><path stroke-linecap="butt" stroke-linejoin="round" fill-opacity="0" stroke="rgb(255,69,36)" stroke-opacity="1" stroke-width="2.487" d=" M83.84200286865234,0 C83.84200286865234,0 -83.84200286865234,0 -83.84200286865234,0"></path></g><g opacity="1" transform="matrix(1,0,0,1,80.10600280761719,-2.492000102996826)"><path stroke-linecap="butt" stroke-linejoin="round" fill-opacity="0" stroke="rgb(255,69,36)" stroke-opacity="1" stroke-width="2.487" d=" M83.84200286865234,0 C83.84200286865234,0 -83.84200286865234,0 -83.84200286865234,0"></path></g><g opacity="1" transform="matrix(1,0,0,1,80.52999877929688,109.02999877929688)"><path stroke-linecap="butt" stroke-linejoin="round" fill-opacity="0" stroke="rgb(255,69,36)" stroke-opacity="1" stroke-width="2.487" d=" M83.78199768066406,0 C83.78199768066406,0 -83.78199768066406,0 -83.78199768066406,0"></path></g><g opacity="1" transform="matrix(1,0,0,1,80.53099822998047,124.16899871826172)"><path stroke-linecap="butt" stroke-linejoin="round" fill-opacity="0" stroke="rgb(255,69,36)" stroke-opacity="1" stroke-width="2.487" d=" M83.78399658203125,0 C83.78399658203125,0 -83.78399658203125,0 -83.78399658203125,0"></path></g><g opacity="1" transform="matrix(1,0,0,1,80.5270004272461,139.30799865722656)"><path stroke-linecap="butt" stroke-linejoin="round" fill-opacity="0" stroke="rgb(255,69,36)" stroke-opacity="1" stroke-width="2.487" d=" M83.77999877929688,0 C83.77999877929688,0 -83.77999877929688,0 -83.77999877929688,0"></path></g></g></g><mask id="__lottie_element_182_1" mask-type="alpha"><use xlink:href="#__lottie_element_182"></use></mask></defs><g clip-path="url(#__lottie_element_169)"><g transform="matrix(1,0,0,1,80.22200012207031,80.24600219726562)" opacity="1" style="display: block;"><g opacity="1" transform="matrix(1,0,0,1,-0.22200000286102295,-0.2460000067949295)"><path stroke-linecap="butt" stroke-linejoin="miter" fill-opacity="0" stroke-miterlimit="4" stroke="rgb(255,68,35)" stroke-opacity="1" stroke-width="2.5" d=" M0,-75.59049987792969 C41.7183952331543,-75.59049987792969 75.59049987792969,-41.7183952331543 75.59049987792969,0 C75.59049987792969,41.7183952331543 41.7183952331543,75.59049987792969 0,75.59049987792969 C-41.7183952331543,75.59049987792969 -75.59049987792969,41.7183952331543 -75.59049987792969,0 C-75.59049987792969,-41.7183952331543 -41.7183952331543,-75.59049987792969 0,-75.59049987792969z"></path></g></g><g clip-path="url(#__lottie_element_174)" transform="matrix(1,0,0,1,0,2)" opacity="1" style="display: block;"><g opacity="1" transform="matrix(1,0,0,1,80.52799987792969,121.052001953125)"><path stroke-linecap="butt" stroke-linejoin="round" fill-opacity="0" stroke="rgb(255,69,36)" stroke-opacity="1" stroke-width="2.487" d=" M0,-41.03799819946289 C0,-41.03799819946289 0,41.03799819946289 0,41.03799819946289"></path></g><g opacity="1" transform="matrix(1,0,0,1,64.97000122070312,118.18399810791016)"><path stroke-linecap="butt" stroke-linejoin="round" fill-opacity="0" stroke="rgb(255,69,36)" stroke-opacity="1" stroke-width="2.487" d=" M9.67199993133545,-38.16999816894531 C9.67199993133545,-38.16999816894531 -9.67199993133545,38.16999816894531 -9.67199993133545,38.16999816894531"></path></g><g opacity="1" transform="matrix(1,0,0,1,48.78200149536133,110.0199966430664)"><path stroke-linecap="butt" stroke-linejoin="round" fill-opacity="0" stroke="rgb(255,69,36)" stroke-opacity="1" stroke-width="2.487" d=" M18.292999267578125,-30.006000518798828 C18.292999267578125,-30.006000518798828 -18.292999267578125,30.006000518798828 -18.292999267578125,30.006000518798828"></path></g><g opacity="1" transform="matrix(1,0,0,1,37.6349983215332,102.73899841308594)"><path stroke-linecap="butt" stroke-linejoin="round" fill-opacity="0" stroke="rgb(255,69,36)" stroke-opacity="1" stroke-width="2.487" d=" M20.184999465942383,-22.725000381469727 C20.184999465942383,-22.725000381469727 -20.184999465942383,22.725000381469727 -20.184999465942383,22.725000381469727"></path></g><g opacity="1" transform="matrix(1,0,0,1,28.80500030517578,94.3550033569336)"><path stroke-linecap="butt" stroke-linejoin="round" fill-opacity="0" stroke="rgb(255,69,36)" stroke-opacity="1" stroke-width="2.487" d=" M19.763999938964844,-14.340999603271484 C19.763999938964844,-14.340999603271484 -19.763999938964844,14.340999603271484 -19.763999938964844,14.340999603271484"></path></g><g opacity="1" transform="matrix(1,0,0,1,21.027000427246094,86.85399627685547)"><path stroke-linecap="butt" stroke-linejoin="round" fill-opacity="0" stroke="rgb(255,69,36)" stroke-opacity="1" stroke-width="2.487" d=" M17.45199966430664,-6.840000152587891 C17.45199966430664,-6.840000152587891 -17.45199966430664,6.840000152587891 -17.45199966430664,6.840000152587891"></path></g><g opacity="1" transform="matrix(1,0,0,1,96.08300018310547,118.18399810791016)"><path stroke-linecap="butt" stroke-linejoin="round" fill-opacity="0" stroke="rgb(255,69,36)" stroke-opacity="1" stroke-width="2.487" d=" M-9.67199993133545,-38.16999816894531 C-9.67199993133545,-38.16999816894531 9.67199993133545,38.16999816894531 9.67199993133545,38.16999816894531"></path></g><g opacity="1" transform="matrix(1,0,0,1,112.27899932861328,110.0199966430664)"><path stroke-linecap="butt" stroke-linejoin="round" fill-opacity="0" stroke="rgb(255,69,36)" stroke-opacity="1" stroke-width="2.487" d=" M-18.29199981689453,-30.006000518798828 C-18.29199981689453,-30.006000518798828 18.29199981689453,30.006000518798828 18.29199981689453,30.006000518798828"></path></g><g opacity="1" transform="matrix(1,0,0,1,123.4219970703125,102.73899841308594)"><path stroke-linecap="butt" stroke-linejoin="round" fill-opacity="0" stroke="rgb(255,69,36)" stroke-opacity="1" stroke-width="2.487" d=" M-20.184999465942383,-22.725000381469727 C-20.184999465942383,-22.725000381469727 20.184999465942383,22.725000381469727 20.184999465942383,22.725000381469727"></path></g><g opacity="1" transform="matrix(1,0,0,1,132.2519989013672,94.3550033569336)"><path stroke-linecap="butt" stroke-linejoin="round" fill-opacity="0" stroke="rgb(255,69,36)" stroke-opacity="1" stroke-width="2.487" d=" M-19.763999938964844,-14.340999603271484 C-19.763999938964844,-14.340999603271484 19.763999938964844,14.340999603271484 19.763999938964844,14.340999603271484"></path></g><g opacity="1" transform="matrix(1,0,0,1,140.0330047607422,86.85399627685547)"><path stroke-linecap="butt" stroke-linejoin="round" fill-opacity="0" stroke="rgb(255,69,36)" stroke-opacity="1" stroke-width="2.487" d=" M-17.451000213623047,-6.840000152587891 C-17.451000213623047,-6.840000152587891 17.451000213623047,6.840000152587891 17.451000213623047,6.840000152587891"></path></g></g><g transform="matrix(0.9636099934577942,0,0,1,80.10600280761719,81.76399993896484)" opacity="1" style="display: block;"><g opacity="1" transform="matrix(1,0,0,1,0,0)"><path stroke-linecap="butt" stroke-linejoin="round" fill-opacity="0" stroke="rgb(255,69,36)" stroke-opacity="1" stroke-width="2.487" d=" M79.01200103759766,0 C79.01200103759766,0 -79.01200103759766,0 -79.01200103759766,0"></path></g></g><g mask="url(#__lottie_element_182_1)" style="display: block;"><g transform="matrix(0.9617099761962891,0,0,0.9617099761962891,80,118.29299926757812)" opacity="1"><g opacity="1" transform="matrix(1,0,0,1,0,0)"><path fill="rgb(255,69,36)" fill-opacity="1" d=" M0,39.17100143432617 C43.266998291015625,39.17100143432617 78.34200286865234,4.0960001945495605 78.34200286865234,-39.17100143432617 C78.34200286865234,-39.17100143432617 -78.34200286865234,-39.17100143432617 -78.34200286865234,-39.17100143432617 C-78.34200286865234,4.0960001945495605 -43.266998291015625,39.17100143432617 0,39.17100143432617z"></path></g></g></g></g></svg>