<svg xmlns="http://www.w3.org/2000/svg" xmlns:xlink="http://www.w3.org/1999/xlink" viewBox="0 0 151 151" width="151" height="151" preserveAspectRatio="xMidYMid meet" style="width: 100%; height: 100%; transform: translate3d(0px, 0px, 0px); content-visibility: visible;"><defs><clipPath id="__lottie_element_1683"><rect width="151" height="151" x="0" y="0"></rect></clipPath><clipPath id="__lottie_element_1685"><path d="M0,0 L200,0 L200,200 L0,200z"></path></clipPath></defs><g clip-path="url(#__lottie_element_1683)"><g clip-path="url(#__lottie_element_1685)" transform="matrix(1,0,0,1,-25,-26)" opacity="1" style="display: block;"><g transform="matrix(-1,0,0,-1,100.49199676513672,102.09400177001953)" opacity="1" style="display: block;"><g opacity="1" transform="matrix(1,0,0,1,0,0)"><path stroke-linecap="butt" stroke-linejoin="miter" fill-opacity="0" stroke-miterlimit="4" stroke="rgb(181,166,255)" stroke-opacity="1" stroke-width="2.5" d=" M71.30000305175781,-0.0010000000474974513 C71.30000305175781,39.37699890136719 39.380001068115234,71.2979965209961 0,71.2979965209961 C-39.380001068115234,71.2979965209961 -71.30000305175781,39.37699890136719 -71.30000305175781,-0.0010000000474974513 C-71.30000305175781,-39.37799835205078 -39.380001068115234,-71.2979965209961 0,-71.2979965209961 C39.380001068115234,-71.2979965209961 71.30000305175781,-39.37799835205078 71.30000305175781,-0.0010000000474974513z"></path></g></g><g transform="matrix(-1,0,0,-1,100.5,97.875)" opacity="1" style="display: block;"><g opacity="1" transform="matrix(1,0,0,1,0,0)"><path stroke-linecap="butt" stroke-linejoin="miter" fill-opacity="0" stroke-miterlimit="4" stroke="rgb(181,166,255)" stroke-opacity="1" stroke-width="2.5" d=" M71.1050033569336,-4.1539998054504395 C71.1050033569336,-1.2834136486053467 60.74125289916992,6.948673248291016 -0.014711285941302776,6.948673248291016 C-60.77067184448242,6.948673248291016 -71.1050033569336,-1.2891297340393066 -71.1050033569336,-4.184999942779541"></path></g></g><g transform="matrix(-1,0,0,-1,100.5,97.875)" opacity="1" style="display: block;"><g opacity="1" transform="matrix(1,0,0,1,0,0)"><path stroke-linecap="butt" stroke-linejoin="miter" fill-opacity="0" stroke-miterlimit="4" stroke="rgb(181,166,255)" stroke-opacity="1" stroke-width="2.5" d=" M71.1050033569336,-4.1539998054504395 C71.1050033569336,-4.968939781188965 61.18559265136719,-7.265587329864502 -0.01644357107579708,-7.265587329864502 C-61.218482971191406,-7.265587329864502 -71.1050033569336,-5.01450252532959 -71.1050033569336,-4.184999942779541"></path></g></g><g transform="matrix(-1,0,0,-1,100.5,97.875)" opacity="1" style="display: block;"><g opacity="1" transform="matrix(1,0,0,1,0,0)"><path stroke-linecap="butt" stroke-linejoin="miter" fill-opacity="0" stroke-miterlimit="4" stroke="rgb(181,166,255)" stroke-opacity="1" stroke-width="2.5" d=" M71.1050033569336,-4.1539998054504395 C71.1050033569336,-8.763139724731445 60.373592376708984,-21.440587997436523 -0.04644357040524483,-21.440587997436523 C-60.46648025512695,-21.440587997436523 -71.1050033569336,-8.87650203704834 -71.1050033569336,-4.184999942779541"></path></g></g><g transform="matrix(-1,0,0,-1,100.5,97.875)" opacity="1" style="display: block;"><g opacity="1" transform="matrix(1,0,0,1,0,0)"><path stroke-linecap="butt" stroke-linejoin="miter" fill-opacity="0" stroke-miterlimit="4" stroke="rgb(181,166,255)" stroke-opacity="1" stroke-width="2.5" d=" M71.1050033569336,-4.1539998054504395 C71.1050033569336,-12.557339668273926 59.56159210205078,-35.6155891418457 -0.07644356787204742,-35.6155891418457 C-59.714481353759766,-35.6155891418457 -71.1050033569336,-12.738502502441406 -71.1050033569336,-4.184999942779541"></path></g></g><g transform="matrix(-1,0,0,-1,100.5,97.875)" opacity="1" style="display: block;"><g opacity="1" transform="matrix(1,0,0,1,0,0)"><path stroke-linecap="butt" stroke-linejoin="miter" fill-opacity="0" stroke-miterlimit="4" stroke="rgb(181,166,255)" stroke-opacity="1" stroke-width="2.5" d=" M71.1050033569336,-4.1539998054504395 C71.1050033569336,-16.351539611816406 58.749595642089844,-49.79058837890625 -0.10644356906414032,-49.79058837890625 C-58.96248245239258,-49.79058837890625 -71.1050033569336,-16.600502014160156 -71.1050033569336,-4.184999942779541"></path></g></g><g transform="matrix(-1,0,0,-1,100.5,97.875)" opacity="1" style="display: block;"><g opacity="1" transform="matrix(1,0,0,1,0,0)"><path stroke-linecap="butt" stroke-linejoin="miter" fill-opacity="0" stroke-miterlimit="4" stroke="rgb(181,166,255)" stroke-opacity="1" stroke-width="2.5" d=" M71.1050033569336,-4.1539998054504395 C71.1050033569336,-20.145740509033203 57.93759536743164,-63.9655876159668 -0.13644357025623322,-63.9655876159668 C-58.210479736328125,-63.9655876159668 -71.1050033569336,-20.462501525878906 -71.1050033569336,-4.184999942779541"></path></g></g><g transform="matrix(-1,0,0,-1,100.5,97.875)" opacity="1" style="display: block;"><g opacity="1" transform="matrix(1,0,0,1,0,0)"><path stroke-linecap="butt" stroke-linejoin="miter" fill-opacity="0" stroke-miterlimit="4" stroke="rgb(181,166,255)" stroke-opacity="1" stroke-width="2.5" d=" M71.1050033569336,-4.1539998054504395 C71.1050033569336,13.60091495513916 57.53296661376953,64.86474609375 -0.03913985565304756,64.86474609375 C-57.611244201660156,64.86474609375 -71.1050033569336,13.726299285888672 -71.1050033569336,-4.184999942779541"></path></g></g><g transform="matrix(-1,0,0,-1,100.5,97.875)" opacity="1" style="display: block;"><g opacity="1" transform="matrix(1,0,0,1,0,0)"><path stroke-linecap="butt" stroke-linejoin="miter" fill-opacity="0" stroke-miterlimit="4" stroke="rgb(181,166,255)" stroke-opacity="1" stroke-width="2.5" d=" M71.1050033569336,-4.1539998054504395 C71.1050033569336,9.945115089416504 58.32096481323242,50.63974380493164 -0.03313985839486122,50.63974380493164 C-58.387245178222656,50.63974380493164 -71.1050033569336,10.038298606872559 -71.1050033569336,-4.184999942779541"></path></g></g><g transform="matrix(-1,0,0,-1,100.5,97.875)" opacity="1" style="display: block;"><g opacity="1" transform="matrix(1,0,0,1,0,0)"><path stroke-linecap="butt" stroke-linejoin="miter" fill-opacity="0" stroke-miterlimit="4" stroke="rgb(181,166,255)" stroke-opacity="1" stroke-width="2.5" d=" M71.1050033569336,-4.1539998054504395 C71.1050033569336,6.2893147468566895 59.10896682739258,36.41474533081055 -0.027139857411384583,36.41474533081055 C-59.163246154785156,36.41474533081055 -71.1050033569336,6.350298881530762 -71.1050033569336,-4.184999942779541"></path></g></g><g transform="matrix(-1,0,0,-1,100.5,97.875)" opacity="1" style="display: block;"><g opacity="1" transform="matrix(1,0,0,1,0,0)"><path stroke-linecap="butt" stroke-linejoin="miter" fill-opacity="0" stroke-miterlimit="4" stroke="rgb(181,166,255)" stroke-opacity="1" stroke-width="2.5" d=" M71.1050033569336,-4.1539998054504395 C71.1050033569336,2.633514881134033 59.89696502685547,22.18974494934082 -0.021139856427907944,22.18974494934082 C-59.93924331665039,22.18974494934082 -71.1050033569336,2.6622989177703857 -71.1050033569336,-4.184999942779541"></path></g></g><g transform="matrix(-1,0,0,-1,100.5,97.875)" opacity="1" style="display: block;"><g opacity="1" transform="matrix(1,0,0,1,0,0)"><path stroke-linecap="butt" stroke-linejoin="miter" fill-opacity="0" stroke-miterlimit="4" stroke="rgb(181,166,255)" stroke-opacity="1" stroke-width="2.5" d=" M71.1050033569336,-4.1539998054504395 C71.1050033569336,-1.022284984588623 60.684967041015625,7.964744567871094 -0.015139857307076454,7.964744567871094 C-60.71524429321289,7.964744567871094 -71.1050033569336,-1.0257011651992798 -71.1050033569336,-4.184999942779541"></path></g></g></g></g></svg>