<svg xmlns="http://www.w3.org/2000/svg" xmlns:xlink="http://www.w3.org/1999/xlink" viewBox="0 0 160 160" width="160" height="160" preserveAspectRatio="xMidYMid meet" style="width: 100%; height: 100%; transform: translate3d(0px, 0px, 0px); content-visibility: visible;"><defs><clipPath id="__lottie_element_333"><rect width="160" height="160" x="0" y="0"></rect></clipPath></defs><g clip-path="url(#__lottie_element_333)"><g transform="matrix(1,0,0,1,0,0)" opacity="1" style="display: block;"><g opacity="1" transform="matrix(1,0,0,1,0,0)"><path stroke-linecap="butt" stroke-linejoin="miter" fill-opacity="0" stroke-miterlimit="4" stroke="rgb(255,69,35)" stroke-opacity="1" stroke-width="2.487" d=" M55.255001068115234,55.255001068115234 C95.2030029296875,15.307000160217285 138.6649932861328,-5.998000144958496 152.33200073242188,7.668000221252441 C165.9980010986328,21.333999633789062 144.6929931640625,64.7969970703125 104.74500274658203,104.74500274658203 C64.7969970703125,144.6929931640625 21.333999633789062,165.9980010986328 7.668000221252441,152.33099365234375 C4.46999979019165,149.13299560546875 3.187000036239624,144.302001953125 3.609999895095825,138.26600646972656"></path></g><g opacity="1" transform="matrix(1,0,0,1,0,0)"><path stroke-linecap="butt" stroke-linejoin="miter" fill-opacity="0" stroke-miterlimit="4" stroke="rgb(255,69,35)" stroke-opacity="1" stroke-width="2.487" d=" M104.74500274658203,55.255001068115234 C144.6929931640625,95.2030029296875 165.9980010986328,138.6649932861328 152.33200073242188,152.33099365234375 C138.6649932861328,165.9980010986328 95.2030029296875,144.6929931640625 55.255001068115234,104.74500274658203 C15.307000160217285,64.7969970703125 -5.998000144958496,21.333999633789062 7.668000221252441,7.668000221252441 C10.866999626159668,4.468999862670898 15.696999549865723,3.187000036239624 21.732999801635742,3.609999895095825"></path></g></g></g></svg>