<svg xmlns="http://www.w3.org/2000/svg" fill="none" xmlns:xlink="http://www.w3.org/1999/xlink" viewBox="0 0 2071 520" width="100%" height="520" preserveAspectRatio="xMidYMid meet" style="width: 100%; height: 100%; transform: translate3d(0px, 0px, 0px); content-visibility: visible;">
  <defs>
    <clipPath id="__lottie_element_23">
      <rect width="2071" height="520" x="0" y="0" class="svg-elem-1"></rect>
    </clipPath>
  </defs>
  <g clip-path="url(#__lottie_element_23)">
    <g transform="matrix(1,0,0,1,1035.5,260)" opacity="1" style="display: block;">
      <g opacity="1" transform="matrix(1,0,0,1,0,0)">
        <path stroke-linecap="square" stroke-linejoin="miter" fill-opacity="0" stroke-miterlimit="4" stroke="rgb(247,237,222)" stroke-opacity="1" stroke-width="21.138" d=" M1024.928955078125,248.6179962158203 C1024.928955078125,248.6179962158203 1024.928955078125,-41.736000061035156 1024.928955078125,-41.736000061035156 C1024.928955078125,-79.09200286865234 994.6500244140625,-109.3759994506836 957.2899780273438,-109.3759994506836 C957.2899780273438,-109.3759994506836 955.9190063476562,-109.3759994506836 955.9190063476562,-109.3759994506836 C918.5590209960938,-109.3759994506836 888.280029296875,-79.09200286865234 888.280029296875,-41.736000061035156 C888.280029296875,-41.736000061035156 888.280029296875,152.78599548339844 888.280029296875,152.78599548339844 C888.280029296875,190.14199829101562 857.989013671875,220.42599487304688 820.6389770507812,220.42599487304688 C820.6389770507812,220.42599487304688 819.260009765625,220.42599487304688 819.260009765625,220.42599487304688 C781.9099731445312,220.42599487304688 751.6199951171875,190.14199829101562 751.6199951171875,152.78599548339844 C751.6199951171875,152.78599548339844 751.6199951171875,-41.736000061035156 751.6199951171875,-41.736000061035156 C751.6199951171875,-79.09300231933594 721.3389892578125,-109.3759994506836 683.97900390625,-109.3759994506836 C683.97900390625,-109.3759994506836 682.6099853515625,-109.3759994506836 682.6099853515625,-109.3759994506836 C645.25,-109.3759994506836 614.968994140625,-79.09200286865234 614.968994140625,-41.736000061035156 C614.968994140625,-41.736000061035156 614.968994140625,46.65399932861328 614.968994140625,46.65399932861328 C614.968994140625,46.65399932861328 614.958984375,46.65399932861328 614.958984375,46.65399932861328 C614.958984375,46.65399932861328 614.958984375,125.13300323486328 614.958984375,125.13300323486328 C614.958984375,162.49000549316406 584.6699829101562,192.7729949951172 547.3200073242188,192.7729949951172 C547.3200073242188,192.7729949951172 545.9390258789062,192.7729949951172 545.9390258789062,192.7729949951172 C508.5889892578125,192.7729949951172 478.29998779296875,162.49000549316406 478.29998779296875,125.13300323486328 C478.29998779296875,125.13300323486328 478.29998779296875,-176.10400390625 478.29998779296875,-176.10400390625 C478.29998779296875,-213.46099853515625 448.0190124511719,-243.74400329589844 410.65899658203125,-243.74400329589844 C410.65899658203125,-243.74400329589844 409.2900085449219,-243.74400329589844 409.2900085449219,-243.74400329589844 C371.92999267578125,-243.74400329589844 341.64898681640625,-213.46099853515625 341.64898681640625,-176.10400390625 C341.64898681640625,-176.10400390625 341.64898681640625,144.61099243164062 341.64898681640625,144.61099243164062 C341.64898681640625,181.9669952392578 311.3599853515625,212.25100708007812 274.010009765625,212.25100708007812 C274.010009765625,212.25100708007812 272.6289978027344,212.25100708007812 272.6289978027344,212.25100708007812 C235.2790069580078,212.25100708007812 204.99000549316406,181.96800231933594 204.99000549316406,144.61099243164062 C204.99000549316406,144.61099243164062 204.99000549316406,70.65599822998047 204.99000549316406,70.65599822998047 C204.99000549316406,70.65599822998047 204.97900390625,70.65599822998047 204.97900390625,70.65599822998047 C204.97900390625,70.65599822998047 204.97900390625,-23.957000732421875 204.97900390625,-23.957000732421875 C204.97900390625,-61.3129997253418 174.69900512695312,-91.59700012207031 137.33900451660156,-91.59700012207031 C137.33900451660156,-91.59700012207031 135.95899963378906,-91.59700012207031 135.95899963378906,-91.59700012207031 C98.60900115966797,-91.59700012207031 68.31999969482422,-61.31399917602539 68.31999969482422,-23.957000732421875 C68.31999969482422,-23.957000732421875 68.31999969482422,163.0050048828125 68.31999969482422,163.0050048828125 C68.31999969482422,200.36199951171875 38.040000915527344,230.64500427246094 0.6840000152587891,230.64500427246094 C0.6840000152587891,230.64500427246094 -0.6930000185966492,230.64500427246094 -0.6930000185966492,230.64500427246094 C-38.04899978637695,230.64500427246094 -68.33300018310547,200.36199951171875 -68.33300018310547,163.0050048828125 C-68.33300018310547,163.0050048828125 -68.33300018310547,-92.0739974975586 -68.33300018310547,-92.0739974975586 C-68.33300018310547,-129.42999267578125 -98.61499786376953,-159.71400451660156 -135.9720001220703,-159.71400451660156 C-135.9720001220703,-159.71400451660156 -137.3470001220703,-159.71400451660156 -137.3470001220703,-159.71400451660156 C-174.7030029296875,-159.71400451660156 -204.98699951171875,-129.42999267578125 -204.98699951171875,-92.0739974975586 C-204.98699951171875,-92.0739974975586 -204.98699951171875,14.152000427246094 -204.98699951171875,14.152000427246094 C-204.98699951171875,14.152000427246094 -204.9980010986328,14.152000427246094 -204.9980010986328,14.152000427246094 C-204.9980010986328,14.152000427246094 -204.9980010986328,161.98300170898438 -204.9980010986328,161.98300170898438 C-204.9980010986328,199.33999633789062 -235.281005859375,229.6230010986328 -272.63800048828125,229.6230010986328 C-272.63800048828125,229.6230010986328 -274.01300048828125,229.6230010986328 -274.01300048828125,229.6230010986328 C-311.3699951171875,229.6230010986328 -341.65399169921875,199.33999633789062 -341.65399169921875,161.98300170898438 C-341.65399169921875,161.98300170898438 -341.65399169921875,-180.97900390625 -341.65399169921875,-180.97900390625 C-341.65399169921875,-218.33599853515625 -371.93798828125,-248.61900329589844 -409.29400634765625,-248.61900329589844 C-409.29400634765625,-248.61900329589844 -410.66900634765625,-248.61900329589844 -410.66900634765625,-248.61900329589844 C-448.0260009765625,-248.61900329589844 -478.3080139160156,-218.3350067138672 -478.3080139160156,-180.97900390625 C-478.3080139160156,-180.97900390625 -478.3080139160156,134.33900451660156 -478.3080139160156,134.33900451660156 C-478.3080139160156,171.6959991455078 -508.5920104980469,201.97900390625 -545.947998046875,201.97900390625 C-545.947998046875,201.97900390625 -547.322998046875,201.97900390625 -547.322998046875,201.97900390625 C-584.6799926757812,201.97900390625 -614.9639892578125,171.6959991455078 -614.9639892578125,134.33900451660156 C-614.9639892578125,134.33900451660156 -614.9639892578125,44.45199966430664 -614.9639892578125,44.45199966430664 C-614.9639892578125,44.45199966430664 -614.9639892578125,-35.707000732421875 -614.9639892578125,-35.707000732421875 C-614.9639892578125,-73.06400299072266 -645.2479858398438,-103.34700012207031 -682.60400390625,-103.34700012207031 C-682.60400390625,-103.34700012207031 -683.97900390625,-103.34700012207031 -683.97900390625,-103.34700012207031 C-721.3350219726562,-103.34700012207031 -751.6199951171875,-73.06400299072266 -751.6199951171875,-35.707000732421875 C-751.6199951171875,-35.707000732421875 -751.6199951171875,169.13600158691406 -751.6199951171875,169.13600158691406 C-751.6199951171875,206.4929962158203 -781.9030151367188,236.7760009765625 -819.260009765625,236.7760009765625 C-819.260009765625,236.7760009765625 -820.635009765625,236.7760009765625 -820.635009765625,236.7760009765625 C-857.9910278320312,236.7760009765625 -888.2739868164062,206.4929962158203 -888.2739868164062,169.13600158691406 C-888.2739868164062,169.13600158691406 -888.2739868164062,-159.71400451660156 -888.2739868164062,-159.71400451660156 C-888.2739868164062,-159.71400451660156 -1024.928955078125,-159.71400451660156 -1024.928955078125,-159.71400451660156 C-1024.928955078125,-159.71400451660156 -1024.928955078125,248.61900329589844 -1024.928955078125,248.61900329589844" class="svg-elem-2">
          <anima></anima>
        </path>
      </g>
    </g>
  </g>
</svg>