<svg width="96" height="48" viewBox="0 0 96 48" fill="none" xmlns="http://www.w3.org/2000/svg">
<path d="M57.9495 3.02618H86.5163C90.0967 3.02618 93.0101 5.90773 93.0495 9.48786L93.3564 37.382C93.3964 41.0183 90.4597 43.9874 86.8232 43.9874H57.6427C54.0062 43.9874 51.0695 41.0183 51.1095 37.382L51.4164 9.48787C51.4558 5.90774 54.3692 3.02618 57.9495 3.02618Z" stroke="white" stroke-width="1.39806"/>
<path d="M57.9484 3.02618H86.5175C90.0975 3.02618 93.0107 5.90709 93.0507 9.48679L93.3552 36.761C93.3958 40.3977 90.4589 43.3675 86.822 43.3675H57.6439C54.007 43.3675 51.0701 40.3977 51.1107 36.761L51.4152 9.48678C51.4552 5.90707 54.3685 3.02618 57.9484 3.02618Z" stroke="white" stroke-width="1.39806"/>
<path d="M57.9511 3.02618H86.5148C90.0957 3.02618 93.0094 5.90856 93.048 9.48923L93.358 38.2099C93.3972 41.8456 90.4607 44.814 86.8248 44.814H57.6411C54.0052 44.814 51.0687 41.8456 51.108 38.2099L51.4179 9.48923C51.4565 5.90856 54.3702 3.02618 57.9511 3.02618Z" stroke="white" stroke-width="1.39806"/>
<path d="M57.9511 3.50823H86.5148C90.0957 3.50823 93.0094 6.39062 93.048 9.97129L93.358 38.692C93.3972 42.3277 90.4607 45.296 86.8248 45.296H57.6411C54.0052 45.296 51.0687 42.3277 51.108 38.692L51.4179 9.97129C51.4565 6.39061 54.3702 3.50823 57.9511 3.50823Z" stroke="white" stroke-width="1.39806"/>
<path d="M57.9471 3.02618H86.4657C90.0452 3.02618 92.9583 5.90637 92.9989 9.48561L93.3008 36.0942C93.342 39.7314 90.405 42.7019 86.7676 42.7019H57.6452C54.0078 42.7019 51.0708 39.7314 51.1121 36.0942L51.414 9.48561C51.4546 5.90637 54.3676 3.02618 57.9471 3.02618Z" stroke="white" stroke-width="1.39806"/>
<path d="M57.9453 3.02618H86.4675C90.0464 3.02618 92.9591 5.90537 93.0007 9.48396L93.2989 35.1997C93.3411 38.8375 90.4038 41.809 86.7658 41.809H57.647C54.009 41.809 51.0717 38.8375 51.1139 35.1997L51.4122 9.48396C51.4537 5.90538 54.3665 3.02618 57.9453 3.02618Z" stroke="white" stroke-width="1.39806"/>
<path d="M67.954 20.417V26.0001H65.5342C63.3184 26.0001 61.5254 27.7494 61.5254 29.9651C61.5254 32.1954 63.3184 33.9884 65.5342 33.9884C67.7353 33.9884 69.5284 32.1954 69.5284 29.9651V27.5453H75.0678V29.9651C75.0678 32.1954 76.8754 33.9884 79.0765 33.9884C81.2777 33.9884 83.0707 32.1954 83.0707 29.9651C83.0707 27.7494 81.2777 26.0001 79.0765 26.0001H76.6421V20.417H79.0765C81.2777 20.417 83.0707 18.6677 83.0707 16.4374C83.0707 14.2216 81.2777 12.4286 79.0765 12.4286C76.8754 12.4286 75.0678 14.2216 75.0678 16.4374V18.8718H69.5284V16.4374C69.5284 14.2216 67.7353 12.4286 65.5342 12.4286C63.3184 12.4286 61.5254 14.2216 61.5254 16.4374C61.5254 18.6677 63.3184 20.417 65.5342 20.417H67.954ZM65.5342 18.8863C64.2076 18.8863 63.0997 17.7785 63.0997 16.4374C63.0997 15.0962 64.2076 14.0029 65.5342 14.0029C66.8607 14.0029 67.954 15.0962 67.954 16.4374V18.8863H65.5342ZM79.0765 18.8863H76.6421V16.4374C76.6421 15.0962 77.75 14.0029 79.0765 14.0029C80.4031 14.0029 81.4964 15.0962 81.4964 16.4374C81.4964 17.7785 80.4031 18.8863 79.0765 18.8863ZM69.5284 26.0146V20.3878H75.0678V26.0146H69.5284ZM65.5342 27.5161H67.954V29.9651C67.954 31.3062 66.8607 32.3995 65.5342 32.3995C64.2076 32.3995 63.0997 31.3062 63.0997 29.9651C63.0997 28.624 64.2076 27.5161 65.5342 27.5161ZM79.0765 27.5161C80.4031 27.5161 81.4964 28.624 81.4964 29.9651C81.4964 31.3062 80.4031 32.3995 79.0765 32.3995C77.75 32.3995 76.6421 31.3062 76.6421 29.9651V27.5161H79.0765Z" fill="white"/>
<path d="M45.066 22.6282H24.5832H24.5166V30.7748H33.96C32.1645 34.5654 28.008 37.6246 22.7543 37.6246C16.8689 37.6246 10.8504 33.3019 10.8504 24.058C10.8504 15.6787 16.0043 10.4915 23.7519 10.4915C28.4403 10.4915 32.231 12.5863 33.7273 15.8117H43.3702C40.7101 7.00011 32.9625 1.11462 23.8516 1.11462C10.2851 1.11462 1.24072 10.0592 1.24072 24.0913C1.24072 38.1233 10.6841 47.0679 23.1534 47.0679C28.9391 47.0679 33.7273 44.0421 35.7224 40.9497C36.1546 40.3512 37.0524 40.6504 37.0524 41.382V45.8376H45.066V22.6282Z" fill="white"/>
</svg>
