<svg xmlns="http://www.w3.org/2000/svg" width="81" height="41" fill="none"><path d="M37.9698 19.2714H20.9008H20.8453V26.0602H28.7148C27.2185 29.2191 23.7548 31.7683 19.3767 31.7683C14.4722 31.7683 9.45677 28.1661 9.45677 20.4629C9.45677 13.4801 13.7517 9.15744 20.208 9.15744C24.1151 9.15744 27.2739 10.9031 28.5209 13.591H36.5566C34.3398 6.24795 27.8835 1.34338 20.2912 1.34338C8.9857 1.34338 1.44873 8.79722 1.44873 20.4906C1.44873 32.184 9.31822 39.6378 19.7093 39.6378C24.5307 39.6378 28.5209 37.1163 30.1834 34.5393C30.5437 34.0405 31.2918 34.2899 31.2918 34.8995V38.6126H37.9698V19.2714Z" fill="#050307"></path><path fill-rule="evenodd" clip-rule="evenodd" d="M79.6448 20.3798C79.6448 8.99119 72.0247 1.37109 60.6361 1.37109C49.1921 1.37109 41.572 8.99119 41.572 20.3798C41.572 31.8792 49.1921 39.5547 60.6361 39.5547C71.997 39.527 79.6448 31.8515 79.6448 20.3798ZM60.6084 9.10206C53.9858 9.10206 49.58 13.6464 49.58 20.3798C49.58 27.224 53.9858 31.7961 60.6084 31.7961C67.1755 31.7961 71.5814 27.224 71.5814 20.3798C71.5814 13.6187 67.2032 9.10206 60.6084 9.10206Z" fill="#050307"></path></svg>