<svg width="67" height="32" viewBox="0 0 67 32" fill="none" xmlns="http://www.w3.org/2000/svg">
<path d="M8.27169 0.725488H23.6232C27.8195 0.725488 31.2213 4.1273 31.2213 8.32363V14.3937V16.0001V23.6765C31.2213 27.8728 27.8195 31.2747 23.6232 31.2747H8.2717C4.07536 31.2747 0.673547 27.8728 0.673547 23.6765V8.32364C0.673547 4.1273 4.07535 0.725488 8.27169 0.725488Z" stroke="#050307" stroke-width="1.2"/>
<path d="M53.7842 32H50.9628V22.051C50.9628 20.0464 49.7006 19.2297 47.9187 20.2691L39.2319 25.3179L37.8212 22.7935L46.4338 17.7448C48.2157 16.7053 48.2157 15.2947 46.4338 14.2552L37.8212 9.28074L39.2319 6.75638L47.9187 11.7309C49.7006 12.8445 50.9628 12.0278 50.9628 9.94895V0H53.7842V9.94895C53.7842 12.0278 55.1206 12.8445 56.9025 11.7309L65.5151 6.75638L67 9.28074L58.3132 14.2552C56.5313 15.2947 56.5313 16.7053 58.3132 17.7448L67 22.7935L65.5151 25.3179L56.9025 20.2691C55.1206 19.2297 53.7842 20.0464 53.7842 22.051V32Z" fill="#050307"/>
</svg>
